<?xml version="1.0" encoding="UTF-8" standalone="no"?>
<!-- Source for assets/logo.svg. Text is still live here; `make logo` runs
     Inkscape with export-text-to-path so the committed logo does not depend
     on the viewer's fonts. The wordmark is set in Georgia, which is
     installed on this machine (see the README's font note). -->

<!--
  GENERATED. Do not edit by hand: run `make logo`.
  Source is tools/logo-src.svg; the text is outlined here so the wordmark
  does not depend on the viewer's installed fonts.
-->
<svg
   viewBox="0 0 1240 400"
   width="1240"
   height="400"
   role="img"
   aria-label="The Anywhere on Earth Time Authority"
   version="1.1"
   id="svg4"
   xmlns="http://www.w3.org/2000/svg"
   xmlns:svg="http://www.w3.org/2000/svg">
  <defs
     id="defs4" />
  <rect
     width="1240"
     height="400"
     fill="#083a66"
     id="rect1" />
  <path
     d="m 358.30542,92.270508 q 0,1.78125 -1.33594,2.755371 Q 355.63354,96 353.25854,96 h -6.54052 V 82.928223 h 5.98388 q 2.39356,0 3.61817,0.834961 1.23389,0.825683 1.23389,2.449218 0,1.113282 -0.62159,1.883301 -0.6123,0.760742 -1.87402,1.029785 1.58643,0.185547 2.41211,1.001953 0.83496,0.807129 0.83496,2.143067 z m -3.50684,-5.687012 q 0,-0.881348 -0.56591,-1.252441 -0.55664,-0.371094 -1.66065,-0.371094 h -3.11719 v 3.237793 h 3.13575 q 1.15966,0 1.6792,-0.398926 0.5288,-0.408203 0.5288,-1.215332 z m 0.76075,5.473633 q 0,-1.836914 -2.63477,-1.836914 h -3.46973 v 3.748047 h 3.57178 q 1.31738,0 1.92041,-0.473145 0.61231,-0.482422 0.61231,-1.437988 z M 375.67944,96 374.51978,92.660156 h -4.98194 L 368.37817,96 h -2.73681 l 4.76855,-13.071777 h 3.22852 L 378.38843,96 Z m -3.65527,-11.058594 -0.0557,0.204102 q -0.0928,0.333984 -0.22266,0.760742 -0.12988,0.426758 -1.5957,4.694336 h 3.75732 l -1.28955,-3.757324 -0.39893,-1.261719 z M 395.20581,96 l -4.69434,-6.002441 -1.61425,1.233886 V 96 H 386.1604 V 82.928223 h 2.73682 v 5.928222 l 5.89111,-5.928222 h 3.19141 L 392.39478,88.45752 398.43433,96 Z m 10.67578,0 V 82.928223 h 10.2793 v 2.115234 h -7.54248 v 3.28418 h 6.97656 v 2.115234 h -6.97656 v 3.441895 h 7.92285 V 96 Z m 27.65332,0 -3.03369,-4.963379 h -3.20996 V 96 h -2.73682 V 82.928223 h 6.53125 q 2.33789,0 3.60889,1.01123 1.271,1.001953 1.271,2.885254 0,1.373047 -0.7793,2.375 -0.7793,0.992676 -2.10596,1.308105 L 436.61499,96 Z m -0.3247,-9.063965 q 0,-1.883301 -2.41211,-1.883301 h -3.50684 v 3.859375 h 3.58105 q 1.1504,0 1.74415,-0.519531 0.59375,-0.519531 0.59375,-1.456543 z m 21.9082,5.492188 q 0,-1.252442 0.75146,-2.226563 0.75147,-0.983398 2.38428,-1.74414 -0.68652,-1.391602 -0.68652,-2.588379 0,-1.447266 0.90918,-2.226563 0.90918,-0.788574 2.58838,-0.788574 1.55859,0 2.45849,0.742187 0.90918,0.742188 0.90918,2.013184 0,0.714355 -0.36182,1.289551 -0.36181,0.575195 -1.02978,1.066894 -0.65869,0.4917 -2.24512,1.233887 0.91846,1.623535 2.26367,3.117188 0.96485,-1.465821 1.46582,-3.367676 l 1.93897,0.649414 q -0.63086,2.161621 -1.79053,3.896484 0.79785,0.677246 1.65137,0.677246 0.60303,0 1.08545,-0.148437 v 1.883301 q -0.51026,0.204101 -1.21533,0.204101 -0.79785,0 -1.60498,-0.287598 -0.79786,-0.287597 -1.45655,-0.83496 -1.57715,1.196777 -3.51611,1.196777 -2.14307,0 -3.32129,-0.983399 -1.17822,-0.992675 -1.17822,-2.773925 z m 7.23633,-6.800293 q 0,-0.528809 -0.35254,-0.862793 -0.35254,-0.333985 -0.95557,-0.333985 -0.71435,0 -1.09473,0.398926 -0.37109,0.398926 -0.37109,1.057617 0,0.807129 0.50098,1.790528 0.97412,-0.417481 1.3916,-0.705078 0.42676,-0.287598 0.64941,-0.612305 0.23194,-0.324707 0.23194,-0.73291 z m -0.76075,8.089843 q -1.54003,-1.716308 -2.52343,-3.497558 -1.59571,0.751465 -1.59571,2.170898 0,0.918457 0.60303,1.475098 0.60303,0.556641 1.64209,0.556641 0.60303,0 1.08545,-0.222657 0.4917,-0.222656 0.78857,-0.482422 z M 494.98755,96 v -5.603516 h -5.69629 V 96 h -2.73682 V 82.928223 h 2.73682 v 5.204589 h 5.69629 v -5.204589 h 2.73682 V 96 Z m 23.99805,-6.596191 q 0,2.041015 -0.80713,3.590332 -0.80713,1.549316 -2.31006,2.375 -1.50293,0.816406 -3.50684,0.816406 -3.08008,0 -4.83349,-1.809082 -1.74414,-1.81836 -1.74414,-4.972656 0,-3.14502 1.74414,-4.907715 1.74414,-1.762696 4.85205,-1.762696 3.10791,0 4.85205,1.78125 1.75342,1.78125 1.75342,4.889161 z m -2.79248,0 q 0,-2.115235 -1.00196,-3.312012 -1.00195,-1.206055 -2.81103,-1.206055 -1.83692,0 -2.83887,1.196778 -1.00195,1.1875 -1.00195,3.321289 0,2.152343 1.0205,3.395507 1.02979,1.233887 2.80176,1.233887 1.83692,0 2.82959,-1.206055 1.00196,-1.206054 1.00196,-3.423339 z M 540.32104,96 h -3.24707 L 535.302,88.438965 q -0.32471,-1.335938 -0.54736,-2.792481 -0.22266,1.215332 -0.36182,1.855469 Q 534.25366,88.132812 532.41675,96 h -3.24707 L 525.802,82.928223 h 2.77393 l 1.89258,8.442382 0.42675,2.041016 q 0.25977,-1.289551 0.50098,-2.458496 0.25049,-1.178223 1.85547,-8.024902 h 3.06152 l 1.65137,6.958007 q 0.19482,0.779297 0.65869,3.525391 l 0.23193,-1.076172 0.4917,-2.133789 1.57715,-7.273437 h 2.77393 z m 10.66651,0 V 82.928223 h 2.73682 v 10.956543 h 7.01367 V 96 Z m 26.84619,0 -1.15967,-3.339844 h -4.98193 L 570.53247,96 h -2.73682 l 4.76856,-13.071777 h 3.22851 L 580.54272,96 Z m -3.65527,-11.058594 -0.0557,0.204102 q -0.0928,0.333984 -0.22265,0.760742 -0.12989,0.426758 -1.59571,4.694336 h 3.75733 l -1.28955,-3.757324 -0.39893,-1.261719 z M 596.27466,96 590.57837,85.934082 q 0.16699,1.46582 0.16699,2.356445 V 96 H 588.3147 V 82.928223 h 3.12646 l 5.77979,10.149414 q -0.16699,-1.400879 -0.16699,-2.55127 v -7.598144 h 2.43066 V 96 Z m 23.41357,-6.633301 q 0,2.022461 -0.79785,3.534668 -0.78857,1.50293 -2.24512,2.300781 Q 615.198,96 613.32397,96 h -5.28808 V 82.928223 h 4.73144 q 3.30274,0 5.11182,1.669922 1.80908,1.660644 1.80908,4.768554 z m -2.75537,0 q 0,-2.105957 -1.09473,-3.209961 -1.09472,-1.113281 -3.12646,-1.113281 h -1.93896 v 8.841309 h 2.31933 q 1.7627,0 2.80176,-1.215332 1.03906,-1.215332 1.03906,-3.302735 z M 639.03589,96 V 82.928223 h 2.73682 V 96 Z m 21.93848,-3.766602 q 0,1.920411 -1.42872,2.940918 -1.41943,1.011231 -4.1748,1.011231 -2.51416,0 -3.94287,-0.890625 -1.42871,-0.890625 -1.83692,-2.699707 l 2.64405,-0.436035 q 0.26904,1.039062 1.04834,1.512207 0.77929,0.463867 2.16162,0.463867 2.8667,0 2.8667,-1.744141 0,-0.55664 -0.33399,-0.918457 -0.3247,-0.361816 -0.92773,-0.603027 -0.59375,-0.241211 -2.29151,-0.584473 -1.46582,-0.343261 -2.04101,-0.547363 -0.5752,-0.213379 -1.03906,-0.491699 -0.46387,-0.287598 -0.78858,-0.686524 -0.3247,-0.398925 -0.51025,-0.937011 -0.17627,-0.538086 -0.17627,-1.233887 0,-1.771973 1.32666,-2.708985 1.33594,-0.946289 3.87793,-0.946289 2.43066,0 3.646,0.760743 1.2246,0.760742 1.57714,2.51416 l -2.65332,0.361816 q -0.2041,-0.844238 -0.83496,-1.270996 -0.62158,-0.426758 -1.79053,-0.426758 -2.48632,0 -2.48632,1.558594 0,0.510254 0.25976,0.834961 0.26905,0.324707 0.78858,0.556641 0.51953,0.222656 2.10595,0.565918 1.8833,0.398925 2.69043,0.742187 0.81641,0.333984 1.28955,0.788574 0.47315,0.445313 0.72364,1.076172 0.25049,0.621582 0.25049,1.437988 z M 668.98755,96 V 82.928223 h 2.73682 v 10.956543 h 7.01367 V 96 Z m 26.84619,0 -1.15967,-3.339844 h -4.98193 L 688.53247,96 h -2.73682 l 4.76856,-13.071777 h 3.22851 L 698.54272,96 Z m -3.65527,-11.058594 -0.0557,0.204102 q -0.0928,0.333984 -0.22265,0.760742 -0.12989,0.426758 -1.59571,4.694336 h 3.75733 l -1.28955,-3.757324 -0.39893,-1.261719 z M 714.27466,96 708.57837,85.934082 q 0.16699,1.46582 0.16699,2.356445 V 96 H 706.3147 V 82.928223 h 3.12646 l 5.77979,10.149414 q -0.16699,-1.400879 -0.16699,-2.55127 v -7.598144 h 2.43066 V 96 Z m 23.41357,-6.633301 q 0,2.022461 -0.79785,3.534668 -0.78857,1.50293 -2.24512,2.300781 Q 733.198,96 731.32397,96 h -5.28808 V 82.928223 h 4.73144 q 3.30274,0 5.11182,1.669922 1.80908,1.660644 1.80908,4.768554 z m -2.75537,0 q 0,-2.105957 -1.09473,-3.209961 -1.09472,-1.113281 -3.12646,-1.113281 h -1.93896 v 8.841309 h 2.31933 q 1.7627,0 2.80176,-1.215332 1.03906,-1.215332 1.03906,-3.302735 z m 21.48389,2.866699 q 0,1.920411 -1.42871,2.940918 -1.41944,1.011231 -4.17481,1.011231 -2.51416,0 -3.94287,-0.890625 -1.42871,-0.890625 -1.83691,-2.699707 l 2.64404,-0.436035 q 0.26904,1.039062 1.04834,1.512207 0.7793,0.463867 2.16162,0.463867 2.8667,0 2.8667,-1.744141 0,-0.55664 -0.33398,-0.918457 -0.32471,-0.361816 -0.92774,-0.603027 -0.59375,-0.241211 -2.2915,-0.584473 -1.46582,-0.343261 -2.04102,-0.547363 -0.57519,-0.213379 -1.03906,-0.491699 -0.46387,-0.287598 -0.78857,-0.686524 -0.32471,-0.398925 -0.51026,-0.937011 -0.17627,-0.538086 -0.17627,-1.233887 0,-1.771973 1.32666,-2.708985 1.33594,-0.946289 3.87793,-0.946289 2.43067,0 3.646,0.760743 1.22461,0.760742 1.57715,2.51416 l -2.65332,0.361816 q -0.20411,-0.844238 -0.83496,-1.270996 -0.62159,-0.426758 -1.79053,-0.426758 -2.48633,0 -2.48633,1.558594 0,0.510254 0.25977,0.834961 0.26904,0.324707 0.78857,0.556641 0.51953,0.222656 2.10596,0.565918 1.8833,0.398925 2.69043,0.742187 0.8164,0.333984 1.28955,0.788574 0.47314,0.445313 0.72363,1.076172 0.25049,0.621582 0.25049,1.437988 z m 19.3291,-1.159668 v -2.829589 h 2.67187 v 2.829589 z m 29.00537,5.111817 q -2.69971,0 -4.13769,-1.317383 -1.42872,-1.317383 -1.42872,-3.766602 v -8.173339 h 2.73682 v 7.959961 q 0,1.549316 0.73291,2.356445 0.74219,0.797851 2.1709,0.797851 1.46582,0 2.25439,-0.83496 0.78858,-0.844239 0.78858,-2.41211 v -7.867187 h 2.73681 v 8.034179 q 0,2.486328 -1.54003,3.859375 -1.53077,1.36377 -4.31397,1.36377 z m 20.18506,-11.14209 V 96 h -2.73682 V 85.043457 h -4.22119 v -2.115234 h 11.18848 v 2.115234 z m 17.81006,8.989746 q 2.47705,0 3.44189,-2.486328 l 2.38428,0.899902 q -0.77002,1.892578 -2.26367,2.820313 -1.48438,0.918457 -3.5625,0.918457 -3.1543,0 -4.87988,-1.78125 -1.71631,-1.790527 -1.71631,-5.000488 0,-3.219239 1.66064,-4.944825 1.66065,-1.725586 4.81494,-1.725586 2.30078,0 3.74805,0.927735 1.44726,0.918457 2.03174,2.708984 l -2.41211,0.658692 q -0.30615,-0.983399 -1.20606,-1.558594 -0.89062,-0.584473 -2.10595,-0.584473 -1.85547,0 -2.82032,1.150391 -0.95556,1.15039 -0.95556,3.367676 0,2.254394 0.9834,3.441894 0.99267,1.1875 2.85742,1.1875 z m 13.08789,-1.827637 v -2.263671 h 4.82422 v 2.263671 z M 868.61597,96 v -1.938965 h 3.23779 v -8.915527 l -3.13574,1.957519 v -2.050293 l 3.2749,-2.124511 h 2.46777 v 11.132812 h 2.99659 V 96 Z m 16.02881,0 v -1.809082 q 0.51025,-1.122559 1.44726,-2.189453 0.94629,-1.066895 2.375,-2.226563 1.37305,-1.113281 1.92041,-1.836914 0.55664,-0.723633 0.55664,-1.419433 0,-1.707032 -1.71631,-1.707032 -0.83496,0 -1.28027,0.45459 -0.43604,0.445313 -0.56592,1.345215 l -2.62549,-0.148437 q 0.22266,-1.81836 1.3545,-2.773926 1.14111,-0.955567 3.09863,-0.955567 2.11523,0 3.24707,0.964844 1.13183,0.964844 1.13183,2.708985 0,0.918457 -0.36181,1.660644 -0.36182,0.742188 -0.92774,1.373047 -0.56591,0.621582 -1.26171,1.168945 -0.68653,0.547364 -1.33594,1.066895 -0.64942,0.519531 -1.1875,1.04834 -0.52881,0.528808 -0.78858,1.131836 h 6.06739 V 96 Z"
     id="text1"
     style="font-weight:bold;font-size:19px;font-family:'Liberation Sans', Arial, sans-serif;letter-spacing:6;text-anchor:middle;fill:#9dbdda"
     aria-label="BAKER &amp; HOWLAND ISLANDS · UTC-12" />
  <path
     d="m 148.15527,166.7168 h -1.9541 q -0.25488,-1.01953 -0.93457,-2.40723 -0.65137,-1.41602 -1.47265,-2.66211 -0.84961,-1.30273 -1.86915,-2.26562 -0.99121,-0.99122 -1.92578,-1.13282 -0.87793,-0.11328 -2.20898,-0.16992 -1.33106,-0.0566 -2.46387,-0.0566 h -1.64258 v 32.14356 q 0,0.93457 0.39649,1.72753 0.39648,0.76465 1.38769,1.18946 0.50977,0.19824 2.12403,0.53808 1.64257,0.33985 2.54882,0.36817 V 196 h -18.9746 v -2.01074 q 0.79296,-0.0566 2.40722,-0.22656 1.64258,-0.16993 2.26563,-0.42481 0.93457,-0.36816 1.35937,-1.04785 0.45313,-0.70801 0.45313,-1.86914 v -32.39844 h -1.64258 q -0.87793,0 -2.18066,0.0566 -1.30274,0.0283 -2.49219,0.16992 -0.93457,0.11328 -1.9541,1.13282 -0.99121,0.99121 -1.84082,2.26562 -0.84961,1.27441 -1.50098,2.71875 -0.65137,1.41602 -0.90625,2.35059 h -1.98242 v -10.90332 h 35.0039 z M 180.97852,196 h -13.70704 v -1.86914 q 0.65137,-0.0566 1.44434,-0.11328 0.79297,-0.0566 1.30273,-0.22656 0.79297,-0.25489 1.16114,-0.87793 0.39648,-0.65137 0.39648,-1.6709 v -14.3584 q 0,-2.97363 -1.41601,-4.58789 -1.3877,-1.61426 -3.39844,-1.61426 -1.47266,0 -2.74707,0.48145 -1.2461,0.45312 -2.23731,1.13281 -0.96289,0.70801 -1.47265,1.41601 -0.50977,0.70801 -0.79297,1.18946 v 16.05761 q 0,0.96289 0.36816,1.58594 0.39649,0.62305 1.18946,0.96289 0.62304,0.28321 1.27441,0.42481 0.67969,0.1416 1.47266,0.19824 V 196 h -13.70704 v -1.86914 q 0.65137,-0.0566 1.35938,-0.11328 0.70801,-0.085 1.18945,-0.22656 0.79297,-0.25489 1.18946,-0.87793 0.39648,-0.65137 0.39648,-1.6709 v -32.51172 q 0,-0.96289 -0.45312,-1.92578 -0.42481,-0.96289 -1.13282,-1.44434 -0.50976,-0.36816 -1.8125,-0.50976 -1.27441,-0.16993 -2.06738,-0.22657 v -1.8125 l 10.33691,-0.65136 0.39649,0.4248 v 19.48438 h 0.11328 q 0.93457,-0.93457 1.69922,-1.64258 0.76465,-0.73633 2.01074,-1.5293 1.07617,-0.67969 2.52051,-1.13281 1.47265,-0.45313 3.28515,-0.45313 3.73829,0 5.74903,2.37891 2.01074,2.35059 2.01074,6.79687 v 14.52832 q 0,0.99122 0.33984,1.61426 0.36817,0.59473 1.18946,0.93457 0.65136,0.25489 1.16113,0.39649 0.53809,0.11328 1.3877,0.16992 z m 28.23535,-6.57031 q -1.75586,3.34179 -4.70117,5.32422 -2.94532,1.98242 -6.76856,1.98242 -3.37012,0 -5.91894,-1.18946 -2.52051,-1.18945 -4.16309,-3.22851 -1.64258,-2.03906 -2.46387,-4.75781 -0.79297,-2.71875 -0.79297,-5.74903 0,-2.71875 0.84961,-5.32422 0.87793,-2.63378 2.54883,-4.72949 1.61426,-2.01074 3.99316,-3.22851 2.40723,-1.2461 5.38086,-1.2461 3.0586,0 5.23926,0.96289 2.18067,0.96289 3.54004,2.63379 1.30274,1.58594 1.92578,3.73828 0.65137,2.15235 0.65137,4.67286 v 1.86914 h -18.49316 q 0,2.74707 0.50976,4.98437 0.53809,2.23731 1.6709,3.93652 1.10449,1.64258 2.88867,2.60547 1.78418,0.93457 4.24805,0.93457 2.52051,0 4.33301,-1.16113 1.84082,-1.18945 3.54004,-4.24805 z m -6.25879,-10.64844 q 0,-1.58594 -0.28321,-3.39844 -0.25488,-1.8125 -0.8496,-3.03027 -0.65137,-1.30274 -1.78418,-2.12402 -1.13282,-0.82129 -2.917,-0.82129 -2.97363,0 -4.95605,2.49218 -1.9541,2.46387 -2.12402,6.88184 z M 264.63672,196 h -16.73731 v -2.01074 q 2.20899,-0.1416 3.65332,-0.56641 1.47266,-0.4248 1.47266,-1.04785 0,-0.25488 -0.0566,-0.62305 -0.0566,-0.36816 -0.16992,-0.65136 l -3.3418,-9.00586 h -14.07519 q -0.79297,1.98242 -1.30274,3.45507 -0.48144,1.47266 -0.87793,2.71875 -0.36816,1.21778 -0.50976,1.98243 -0.14161,0.76464 -0.14161,1.24609 0,1.13281 1.78418,1.75586 1.78418,0.62305 4.02149,0.73633 V 196 h -15.12305 v -2.01074 q 0.73633,-0.0566 1.84082,-0.31153 1.10449,-0.2832 1.8125,-0.73632 1.13281,-0.76465 1.75586,-1.58594 0.62305,-0.84961 1.21777,-2.32227 3.03028,-7.56152 6.6836,-16.99218 3.65332,-9.43067 6.51367,-16.79395 h 2.26563 l 13.3955,34.66406 q 0.42481,1.10449 0.96289,1.78418 0.53809,0.67969 1.50098,1.33106 0.65137,0.39648 1.69922,0.67968 1.04785,0.25489 1.75586,0.28321 z m -16.19922,-16.42578 -6.08887,-15.57617 -5.97558,15.57617 z M 296.18555,196 h -13.67871 v -1.86914 q 0.65136,-0.0566 1.41601,-0.11328 0.79297,-0.0566 1.30274,-0.22656 0.79296,-0.25489 1.16113,-0.87793 0.39648,-0.65137 0.39648,-1.6709 v -14.3584 q 0,-2.97363 -1.41601,-4.58789 -1.3877,-1.61426 -3.39844,-1.61426 -1.50098,0 -2.74707,0.48145 -1.24609,0.45312 -2.20898,1.13281 -0.93458,0.65137 -1.50098,1.41601 -0.53809,0.73633 -0.79297,1.18946 v 16.05761 q 0,0.96289 0.39648,1.58594 0.39649,0.62305 1.18946,0.96289 0.59472,0.28321 1.27441,0.42481 0.70801,0.1416 1.44434,0.19824 V 196 h -13.67871 v -1.86914 q 0.65136,-0.0566 1.33105,-0.11328 0.70801,-0.0566 1.21777,-0.22656 0.79297,-0.25489 1.16114,-0.87793 0.39648,-0.65137 0.39648,-1.6709 v -17.24707 q 0,-0.96289 -0.4248,-1.75586 -0.39649,-0.82129 -1.13282,-1.33106 -0.53808,-0.33984 -1.27441,-0.48144 -0.73633,-0.16992 -1.58594,-0.22656 v -1.84083 l 9.28907,-0.62304 0.39648,0.39648 v 3.93653 h 0.1416 q 0.67969,-0.67969 1.69922,-1.61426 1.01953,-0.96289 1.92578,-1.55762 1.04785,-0.67969 2.49219,-1.13281 1.44433,-0.45313 3.25683,-0.45313 4.02149,0 5.94727,2.52051 1.9541,2.49219 1.9541,6.65527 v 14.52832 q 0,0.99122 0.33985,1.61426 0.33984,0.59473 1.16113,0.93457 0.67969,0.28321 1.16113,0.39649 0.50977,0.11328 1.3877,0.16992 z m 1.30273,9.11914 q 0,-1.41602 0.76465,-2.32227 0.79297,-0.87792 1.9541,-0.87792 0.90625,0 1.55762,0.33984 0.65137,0.33984 1.16113,0.87793 0.42481,0.4248 0.90625,1.16113 0.48145,0.73633 0.76465,1.21777 1.41602,-0.76464 3.37012,-3.99316 1.98242,-3.22851 2.86035,-5.66406 -2.69043,-6.71192 -4.8711,-12.00781 -2.18066,-5.2959 -4.55957,-10.95997 -0.53808,-1.30273 -1.8125,-2.01074 -1.27441,-0.73633 -2.54882,-0.93457 v -1.86914 h 12.74414 v 1.98242 q -0.84961,0.0283 -2.03907,0.36817 -1.18945,0.31152 -1.18945,0.87793 0,0 0.1416,0.4248 0.16992,0.42481 0.28321,0.82129 1.07617,2.80371 3.28515,8.09961 2.20899,5.26758 3.42676,8.43945 1.27441,-3.03027 2.63379,-6.25879 1.38769,-3.25683 3.08691,-7.6748 0.19825,-0.53809 0.56641,-1.47266 0.36816,-0.96289 0.36816,-1.64257 0,-0.73633 -1.30273,-1.35938 -1.27442,-0.65137 -2.43555,-0.79297 v -1.8125 h 10.36524 v 1.75586 q -0.84961,0.1416 -2.23731,0.99121 -1.38769,0.82129 -2.06738,2.35059 -3.37012,7.8164 -6.00391,14.24512 -2.60547,6.42871 -3.96484,9.45898 -1.78418,3.96484 -3.2002,6.17383 -1.38769,2.2373 -2.71875,3.51172 -1.30273,1.18945 -2.3789,1.58593 -1.04785,0.42481 -2.18067,0.42481 -2.20898,0 -3.4834,-1.04785 -1.24609,-1.04785 -1.24609,-2.40723 z m 72.27344,-35.23047 q -1.18945,0.11328 -2.57715,0.99121 -1.35937,0.87793 -1.98242,2.63379 -1.41602,4.16309 -2.69043,7.90137 -1.2461,3.70996 -2.80371,8.35449 -0.50977,1.47266 -1.04785,3.17188 -0.50977,1.69921 -0.93457,3.25683 h -2.43555 l -7.50488,-20.56054 -7.56153,20.56054 h -2.32226 q -2.12403,-6.28711 -4.16309,-12.46094 -2.01074,-6.20214 -3.56836,-10.79003 -0.45312,-1.33106 -1.72754,-2.09571 -1.27441,-0.76465 -2.46386,-0.90625 v -1.86914 h 12.46093 v 1.98242 q -0.93457,0.0283 -2.03906,0.31153 -1.07617,0.2832 -1.07617,0.93457 0,0.11328 0.085,0.48144 0.11328,0.36817 0.25488,0.79297 0.90625,2.97363 2.03906,6.65527 1.16114,3.65333 2.97364,9.51563 l 7.13672,-20.10742 h 2.71875 l 7.27832,19.82422 q 1.21777,-3.79493 2.40722,-7.33496 1.21778,-3.56836 2.12403,-6.6836 0.19824,-0.73633 0.36816,-1.33105 0.19824,-0.62305 0.19824,-1.21778 0,-0.50976 -0.45312,-0.90625 -0.45313,-0.39648 -1.10449,-0.65136 -0.56641,-0.22657 -1.2461,-0.33985 -0.65137,-0.11328 -0.96289,-0.11328 v -1.8125 h 10.62012 z M 401.25391,196 h -13.70704 v -1.86914 q 0.65137,-0.0566 1.44434,-0.11328 0.79297,-0.0566 1.30274,-0.22656 0.79296,-0.25489 1.16113,-0.87793 0.39648,-0.65137 0.39648,-1.6709 v -14.3584 q 0,-2.97363 -1.41601,-4.58789 -1.3877,-1.61426 -3.39844,-1.61426 -1.47266,0 -2.74707,0.48145 -1.24609,0.45312 -2.23731,1.13281 -0.96289,0.70801 -1.47265,1.41601 -0.50977,0.70801 -0.79297,1.18946 v 16.05761 q 0,0.96289 0.36816,1.58594 0.39649,0.62305 1.18946,0.96289 0.62304,0.28321 1.27441,0.42481 0.67969,0.1416 1.47266,0.19824 V 196 h -13.70703 v -1.86914 q 0.65136,-0.0566 1.35937,-0.11328 0.70801,-0.085 1.18945,-0.22656 0.79297,-0.25489 1.18946,-0.87793 0.39648,-0.65137 0.39648,-1.6709 v -32.51172 q 0,-0.96289 -0.45312,-1.92578 -0.42481,-0.96289 -1.13282,-1.44434 -0.50976,-0.36816 -1.8125,-0.50976 -1.27441,-0.16993 -2.06738,-0.22657 v -1.8125 l 10.33691,-0.65136 0.39649,0.4248 v 19.48438 h 0.11328 q 0.93457,-0.93457 1.69922,-1.64258 0.76465,-0.73633 2.01074,-1.5293 1.07617,-0.67969 2.52051,-1.13281 1.47266,-0.45313 3.28516,-0.45313 3.73828,0 5.74902,2.37891 2.01074,2.35059 2.01074,6.79687 v 14.52832 q 0,0.99122 0.33984,1.61426 0.36817,0.59473 1.18946,0.93457 0.65137,0.25489 1.16113,0.39649 0.53809,0.11328 1.3877,0.16992 z m 28.23535,-6.57031 q -1.75586,3.34179 -4.70117,5.32422 -2.94532,1.98242 -6.76856,1.98242 -3.37012,0 -5.91894,-1.18946 -2.52051,-1.18945 -4.16309,-3.22851 -1.64258,-2.03906 -2.46387,-4.75781 -0.79297,-2.71875 -0.79297,-5.74903 0,-2.71875 0.84961,-5.32422 0.87793,-2.63378 2.54883,-4.72949 1.61426,-2.01074 3.99317,-3.22851 2.40722,-1.2461 5.38085,-1.2461 3.0586,0 5.23926,0.96289 2.18067,0.96289 3.54004,2.63379 1.30274,1.58594 1.92578,3.73828 0.65137,2.15235 0.65137,4.67286 v 1.86914 h -18.49316 q 0,2.74707 0.50976,4.98437 0.53809,2.23731 1.6709,3.93652 1.10449,1.64258 2.88867,2.60547 1.78418,0.93457 4.24805,0.93457 2.52051,0 4.33301,-1.16113 1.84082,-1.18945 3.54004,-4.24805 z m -6.25879,-10.64844 q 0,-1.58594 -0.2832,-3.39844 -0.25489,-1.8125 -0.84961,-3.03027 -0.65137,-1.30274 -1.78418,-2.12402 -1.13282,-0.82129 -2.917,-0.82129 -2.97363,0 -4.95605,2.49218 -1.9541,2.46387 -2.12402,6.88184 z m 30.86914,-7.1084 q 0,1.44434 -0.70801,2.57715 -0.70801,1.10449 -2.18066,1.10449 -1.58594,0 -2.43555,-0.82129 -0.82129,-0.82129 -0.82129,-1.8125 0,-0.62304 0.085,-1.13281 0.11328,-0.50977 0.19824,-1.01953 -1.33105,0 -3.11523,1.07617 -1.78418,1.07617 -3.03027,3.05859 v 16.25586 q 0,0.99122 0.36816,1.61426 0.39649,0.62305 1.21777,0.93457 0.70801,0.28321 1.8125,0.42481 1.13282,0.1416 1.95411,0.19824 V 196 h -14.72657 v -1.86914 q 0.65137,-0.0566 1.33106,-0.11328 0.70801,-0.0566 1.21777,-0.22656 0.79297,-0.25489 1.16113,-0.87793 0.39649,-0.65137 0.39649,-1.6709 v -17.24707 q 0,-0.87793 -0.42481,-1.72754 -0.39648,-0.84961 -1.13281,-1.35938 -0.53808,-0.33984 -1.27441,-0.48144 -0.73633,-0.16992 -1.58594,-0.22656 v -1.84083 l 9.28906,-0.62304 0.39649,0.39648 v 3.93653 h 0.1416 q 1.75586,-2.29395 3.9082,-3.4834 2.15235,-1.18946 3.93652,-1.18946 1.78418,0 2.88868,1.16114 1.13281,1.16113 1.13281,3.11523 z m 27.1875,17.75684 q -1.75586,3.34179 -4.70117,5.32422 -2.94532,1.98242 -6.76856,1.98242 -3.37011,0 -5.91894,-1.18946 -2.52051,-1.18945 -4.16309,-3.22851 -1.64258,-2.03906 -2.46387,-4.75781 -0.79296,-2.71875 -0.79296,-5.74903 0,-2.71875 0.8496,-5.32422 0.87793,-2.63378 2.54883,-4.72949 1.61426,-2.01074 3.99317,-3.22851 2.40722,-1.2461 5.38086,-1.2461 3.05859,0 5.23925,0.96289 2.18067,0.96289 3.54004,2.63379 1.30274,1.58594 1.92578,3.73828 0.65137,2.15235 0.65137,4.67286 v 1.86914 h -18.49316 q 0,2.74707 0.50976,4.98437 0.53809,2.23731 1.6709,3.93652 1.10449,1.64258 2.88867,2.60547 1.78418,0.93457 4.24805,0.93457 2.52051,0 4.33301,-1.16113 1.84082,-1.18945 3.54004,-4.24805 z m -6.25879,-10.64844 q 0,-1.58594 -0.2832,-3.39844 -0.25489,-1.8125 -0.84961,-3.03027 -0.65137,-1.30274 -1.78418,-2.12402 -1.13281,-0.82129 -2.91699,-0.82129 -2.97364,0 -4.95606,2.49218 -1.9541,2.46387 -2.12402,6.88184 z m 50.69336,2.97363 q 0,2.94532 -0.93457,5.80567 -0.93457,2.83203 -2.66211,4.81445 -1.9541,2.26562 -4.53125,3.37012 -2.57715,1.10449 -5.77734,1.10449 -2.66211,0 -5.06934,-0.99121 -2.40723,-1.01953 -4.27637,-2.94531 -1.84082,-1.89747 -2.94531,-4.61622 -1.07617,-2.74707 -1.07617,-6.1455 0,-6.542 3.79492,-10.70508 3.82324,-4.16309 9.99707,-4.16309 5.86231,0 9.65723,3.96485 3.82324,3.93652 3.82324,10.50683 z m -5.86231,0.0566 q 0,-2.12402 -0.4248,-4.47461 -0.4248,-2.3789 -1.27441,-4.02148 -0.90625,-1.75586 -2.37891,-2.80371 -1.47266,-1.07617 -3.59668,-1.07617 -2.18066,0 -3.73828,1.07617 -1.5293,1.07617 -2.49219,2.94531 -0.90625,1.72754 -1.27441,3.93652 -0.36817,2.20899 -0.36817,4.27637 0,2.71875 0.42481,5.04102 0.45312,2.29394 1.41601,4.10644 0.96289,1.8125 2.40723,2.86035 1.47266,1.01954 3.625,1.01954 3.54004,0 5.60742,-3.42676 2.06738,-3.42676 2.06738,-9.45899 z M 560.6123,196 h -13.67871 v -1.86914 q 0.65137,-0.0566 1.41602,-0.11328 0.79297,-0.0566 1.30273,-0.22656 0.79297,-0.25489 1.16114,-0.87793 0.39648,-0.65137 0.39648,-1.6709 v -14.3584 q 0,-2.97363 -1.41601,-4.58789 -1.3877,-1.61426 -3.39844,-1.61426 -1.50098,0 -2.74707,0.48145 -1.2461,0.45312 -2.20899,1.13281 -0.93457,0.65137 -1.50097,1.41601 -0.53809,0.73633 -0.79297,1.18946 v 16.05761 q 0,0.96289 0.39648,1.58594 0.39649,0.62305 1.18946,0.96289 0.59472,0.28321 1.27441,0.42481 0.70801,0.1416 1.44434,0.19824 V 196 h -13.67872 v -1.86914 q 0.65137,-0.0566 1.33106,-0.11328 0.70801,-0.0566 1.21777,-0.22656 0.79297,-0.25489 1.16114,-0.87793 0.39648,-0.65137 0.39648,-1.6709 v -17.24707 q 0,-0.96289 -0.42481,-1.75586 -0.39648,-0.82129 -1.13281,-1.33106 -0.53808,-0.33984 -1.27441,-0.48144 -0.73633,-0.16992 -1.58594,-0.22656 v -1.84083 l 9.28906,-0.62304 0.39649,0.39648 v 3.93653 h 0.1416 q 0.67969,-0.67969 1.69922,-1.61426 1.01953,-0.96289 1.92578,-1.55762 1.04785,-0.67969 2.49219,-1.13281 1.44433,-0.45313 3.25683,-0.45313 4.02149,0 5.94727,2.52051 1.9541,2.49219 1.9541,6.65527 v 14.52832 q 0,0.99122 0.33984,1.61426 0.33985,0.59473 1.16114,0.93457 0.67968,0.28321 1.16113,0.39649 0.50976,0.11328 1.38769,0.16992 z M 612.55176,184.16211 611.78711,196 h -33.36133 v -2.01074 q 0.84961,-0.0566 2.26563,-0.22656 1.41601,-0.19825 1.84082,-0.39649 0.90625,-0.4248 1.24609,-1.10449 0.36816,-0.67969 0.36816,-1.72754 v -28.88672 q 0,-0.93457 -0.31152,-1.64258 -0.31152,-0.73633 -1.30273,-1.18945 -0.76465,-0.36816 -2.06739,-0.65137 -1.27441,-0.2832 -2.03906,-0.33984 v -2.01074 h 31.0957 v 9.68554 h -2.12402 q -0.56641,-2.15234 -2.46387,-4.55957 -1.86914,-2.43554 -3.56836,-2.66211 -0.87793,-0.11328 -2.0957,-0.16992 -1.21777,-0.0566 -2.77539,-0.0566 h -6.31543 v 15.97266 h 4.53125 q 2.18066,0 3.17188,-0.39649 1.01953,-0.4248 1.78418,-1.38769 0.62304,-0.82129 1.04785,-2.18067 0.45312,-1.38769 0.59472,-2.60547 h 2.12403 v 15.71778 h -2.12403 q -0.11328,-1.35938 -0.62304,-2.86035 -0.48145,-1.5293 -1.01953,-2.20899 -0.87793,-1.10449 -2.01075,-1.44433 -1.10449,-0.33985 -2.94531,-0.33985 h -4.53125 v 12.06446 q 0,1.8125 0.25488,2.86035 0.25489,1.04785 0.99121,1.58593 0.73633,0.53809 2.01075,0.70801 1.27441,0.1416 3.625,0.1416 0.93457,0 2.46386,0 1.5293,0 2.57715,-0.11328 1.07617,-0.11328 2.20899,-0.39648 1.16113,-0.31152 1.64257,-0.82129 1.30274,-1.35938 2.71875,-4.10645 1.44434,-2.77539 1.84083,-4.07812 z m 29.82129,11.32812 q -1.33106,0.48145 -2.35059,0.76465 -0.99121,0.31153 -2.26562,0.31153 -2.20899,0 -3.54004,-1.01954 -1.30274,-1.04785 -1.6709,-3.03027 h -0.16992 q -1.84082,2.03906 -3.96485,3.11524 -2.0957,1.07617 -5.06933,1.07617 -3.14356,0 -5.18262,-1.92578 -2.01074,-1.92578 -2.01074,-5.04102 0,-1.61426 0.45312,-2.88867 0.45313,-1.27442 1.35938,-2.29395 0.70801,-0.84961 1.86914,-1.50097 1.16113,-0.67969 2.18066,-1.07617 1.27442,-0.48145 5.1543,-1.78418 3.9082,-1.30274 5.26758,-2.03907 v -2.80371 q 0,-0.36816 -0.16992,-1.41601 -0.14161,-1.04786 -0.65137,-1.98243 -0.56641,-1.04785 -1.61426,-1.8125 -1.01953,-0.79296 -2.91699,-0.79296 -1.30274,0 -2.43555,0.45312 -1.10449,0.42481 -1.55762,0.90625 0,0.56641 0.25489,1.6709 0.2832,1.10449 0.2832,2.03906 0,0.99121 -0.90625,1.8125 -0.87793,0.82129 -2.46387,0.82129 -1.41601,0 -2.0957,-0.99121 -0.65137,-1.01953 -0.65137,-2.26563 0,-1.30273 0.90625,-2.49218 0.93457,-1.18946 2.40723,-2.12403 1.27441,-0.79296 3.08691,-1.33105 1.8125,-0.56641 3.54004,-0.56641 2.37891,0 4.13477,0.33985 1.78418,0.31152 3.22851,1.38769 1.44434,1.04785 2.18067,2.86035 0.76465,1.78418 0.76465,4.61621 0,4.04981 -0.085,7.19336 -0.085,3.11524 -0.085,6.8252 0,1.10449 0.36817,1.75586 0.39648,0.65137 1.18945,1.10449 0.42481,0.25488 1.33106,0.2832 0.93457,0.0283 1.89746,0.0283 z m -9.88379,-14.95312 q -2.40723,0.70801 -4.21973,1.38769 -1.8125,0.67969 -3.37012,1.69922 -1.41601,0.96289 -2.2373,2.29395 -0.82129,1.30273 -0.82129,3.11523 0,2.35059 1.21777,3.45508 1.2461,1.10449 3.14356,1.10449 2.01074,0 3.54004,-0.96289 1.52929,-0.99121 2.57715,-2.32226 z m 34.04101,-8.86426 q 0,1.44434 -0.708,2.57715 -0.70801,1.10449 -2.18067,1.10449 -1.58594,0 -2.43555,-0.82129 -0.82128,-0.82129 -0.82128,-1.8125 0,-0.62304 0.085,-1.13281 0.11328,-0.50977 0.19824,-1.01953 -1.33106,0 -3.11524,1.07617 -1.78418,1.07617 -3.03027,3.05859 v 16.25586 q 0,0.99122 0.36816,1.61426 0.39649,0.62305 1.21778,0.93457 0.70801,0.28321 1.8125,0.42481 1.13281,0.1416 1.9541,0.19824 V 196 h -14.72656 v -1.86914 q 0.65136,-0.0566 1.33105,-0.11328 0.70801,-0.0566 1.21778,-0.22656 0.79296,-0.25489 1.16113,-0.87793 0.39648,-0.65137 0.39648,-1.6709 v -17.24707 q 0,-0.87793 -0.4248,-1.72754 -0.39649,-0.84961 -1.13281,-1.35938 -0.53809,-0.33984 -1.27442,-0.48144 -0.73633,-0.16992 -1.58594,-0.22656 v -1.84083 l 9.28907,-0.62304 0.39648,0.39648 v 3.93653 h 0.1416 q 1.75586,-2.29395 3.90821,-3.4834 2.15234,-1.18946 3.93652,-1.18946 1.78418,0 2.88867,1.16114 1.13281,1.16113 1.13281,3.11523 z m 19.62598,23.10938 q -1.84082,0.76464 -3.4834,1.27441 -1.64258,0.53809 -4.02148,0.53809 -3.51172,0 -4.95606,-1.75586 -1.41601,-1.78418 -1.41601,-5.0127 V 170.9082 h -5.04102 v -2.71875 h 5.1543 v -8.69433 h 5.15429 v 8.69433 h 8.01465 v 2.71875 h -7.958 v 15.6045 q 0,1.75585 0.11328,2.94531 0.1416,1.16113 0.62304,2.03906 0.45313,0.82129 1.35938,1.24609 0.90625,0.42481 2.43555,0.42481 0.708,0 2.06738,-0.11328 1.38769,-0.1416 1.9541,-0.33985 z M 719.2627,196 h -13.70704 v -1.86914 q 0.65137,-0.0566 1.44434,-0.11328 0.79297,-0.0566 1.30273,-0.22656 0.79297,-0.25489 1.16114,-0.87793 0.39648,-0.65137 0.39648,-1.6709 v -14.3584 q 0,-2.97363 -1.41601,-4.58789 -1.3877,-1.61426 -3.39844,-1.61426 -1.47266,0 -2.74707,0.48145 -1.2461,0.45312 -2.23731,1.13281 -0.96289,0.70801 -1.47265,1.41601 -0.50977,0.70801 -0.79297,1.18946 v 16.05761 q 0,0.96289 0.36816,1.58594 0.39649,0.62305 1.18946,0.96289 0.62304,0.28321 1.27441,0.42481 0.67969,0.1416 1.47266,0.19824 V 196 h -13.70704 v -1.86914 q 0.65137,-0.0566 1.35938,-0.11328 0.70801,-0.085 1.18945,-0.22656 0.79297,-0.25489 1.18946,-0.87793 0.39648,-0.65137 0.39648,-1.6709 v -32.51172 q 0,-0.96289 -0.45312,-1.92578 -0.42481,-0.96289 -1.13282,-1.44434 -0.50976,-0.36816 -1.8125,-0.50976 -1.27441,-0.16993 -2.06738,-0.22657 v -1.8125 l 10.33691,-0.65136 0.39649,0.4248 v 19.48438 h 0.11328 q 0.93457,-0.93457 1.69922,-1.64258 0.76465,-0.73633 2.01074,-1.5293 1.07617,-0.67969 2.52051,-1.13281 1.47265,-0.45313 3.28515,-0.45313 3.73829,0 5.74903,2.37891 2.01074,2.35059 2.01074,6.79687 v 14.52832 q 0,0.99122 0.33984,1.61426 0.36817,0.59473 1.18946,0.93457 0.65136,0.25489 1.16113,0.39649 0.53809,0.11328 1.3877,0.16992 z m 50.80664,-29.2832 h -1.95411 q -0.25488,-1.01953 -0.93457,-2.40723 -0.65136,-1.41602 -1.47265,-2.66211 -0.84961,-1.30273 -1.86914,-2.26562 -0.99121,-0.99122 -1.92578,-1.13282 -0.87793,-0.11328 -2.20899,-0.16992 -1.33105,-0.0566 -2.46387,-0.0566 h -1.64257 v 32.14356 q 0,0.93457 0.39648,1.72753 0.39648,0.76465 1.3877,1.18946 0.50976,0.19824 2.12402,0.53808 1.64258,0.33985 2.54883,0.36817 V 196 h -18.97461 v -2.01074 q 0.79297,-0.0566 2.40722,-0.22656 1.64258,-0.16993 2.26563,-0.42481 0.93457,-0.36816 1.35937,-1.04785 0.45313,-0.70801 0.45313,-1.86914 v -32.39844 h -1.64258 q -0.87793,0 -2.18066,0.0566 -1.30274,0.0283 -2.49219,0.16992 -0.93457,0.11328 -1.9541,1.13282 -0.99121,0.99121 -1.84082,2.26562 -0.84961,1.27441 -1.50098,2.71875 -0.65137,1.41602 -0.90625,2.35059 h -1.98242 v -10.90332 h 35.00391 z M 786.12695,196 h -13.50879 v -1.86914 q 0.65137,-0.0566 1.33106,-0.11328 0.70801,-0.0566 1.21777,-0.22656 0.79297,-0.25489 1.16113,-0.87793 0.39649,-0.65137 0.39649,-1.6709 v -17.24707 q 0,-0.90625 -0.42481,-1.64258 -0.39648,-0.76465 -1.13281,-1.27442 -0.53808,-0.33984 -1.55762,-0.5664 -1.01953,-0.25488 -1.86914,-0.31152 v -1.84083 l 9.85547,-0.62304 0.39649,0.39648 v 22.76953 q 0,0.99121 0.36816,1.64258 0.39649,0.65137 1.21777,0.96289 0.62305,0.25489 1.21778,0.42481 0.59472,0.1416 1.33105,0.19824 z m -3.56836,-39.28027 q 0,1.61425 -1.07617,2.83203 -1.04785,1.18945 -2.60547,1.18945 -1.44433,0 -2.5205,-1.13281 -1.04786,-1.16113 -1.04786,-2.63379 0,-1.55762 1.04786,-2.71875 1.07617,-1.16113 2.5205,-1.16113 1.61426,0 2.63379,1.10449 1.04785,1.07617 1.04785,2.52051 z M 837.38672,196 h -13.62207 v -1.86914 q 0.65137,-0.0566 1.30273,-0.11328 0.67969,-0.0566 1.18946,-0.22656 0.79296,-0.25489 1.16113,-0.87793 0.39648,-0.65137 0.39648,-1.6709 v -14.41504 q 0,-2.94531 -1.35937,-4.53125 -1.33106,-1.61426 -3.3418,-1.61426 -1.38769,0 -2.60547,0.42481 -1.21777,0.4248 -2.2373,1.18945 -0.82129,0.62305 -1.3877,1.35937 -0.53808,0.70801 -0.82129,1.18946 v 16.11425 q 0,0.99122 0.33985,1.64258 0.33984,0.62305 1.16113,0.96289 0.65137,0.25489 1.16113,0.39649 0.53809,0.11328 1.3877,0.16992 V 196 h -13.33887 v -1.86914 q 0.65137,-0.0566 1.24609,-0.11328 0.62305,-0.0566 1.13282,-0.22656 0.79297,-0.25489 1.16113,-0.87793 0.39648,-0.65137 0.39648,-1.6709 v -14.41504 q 0,-2.94531 -1.35937,-4.53125 -1.33106,-1.61426 -3.3418,-1.61426 -1.38769,0 -2.60547,0.45313 -1.21777,0.4248 -2.2373,1.18945 -0.82129,0.62305 -1.3877,1.41601 -0.5664,0.76465 -0.84961,1.16114 v 16.00097 q 0,0.96289 0.39649,1.61426 0.39648,0.65137 1.18945,0.99121 0.59473,0.28321 1.21778,0.42481 0.62304,0.1416 1.38769,0.19824 V 196 h -13.56543 v -1.86914 q 0.65137,-0.0566 1.33106,-0.11328 0.708,-0.0566 1.21777,-0.22656 0.79297,-0.25489 1.16113,-0.87793 0.39649,-0.65137 0.39649,-1.6709 v -17.36035 q 0,-0.90625 -0.42481,-1.61426 -0.39648,-0.73633 -1.13281,-1.2461 -0.53809,-0.33984 -1.33106,-0.53808 -0.79296,-0.22656 -1.64257,-0.2832 v -1.84083 l 9.3457,-0.62304 0.39648,0.39648 v 3.99317 h 0.19825 q 0.708,-0.70801 1.72753,-1.6709 1.01954,-0.96289 1.89747,-1.55762 0.99121,-0.67969 2.46386,-1.13281 1.50098,-0.45313 3.22852,-0.45313 2.71875,0 4.67285,1.47266 1.9541,1.44434 2.80371,3.51172 1.01953,-0.99121 1.78418,-1.72754 0.79297,-0.76465 2.06738,-1.61426 1.07618,-0.73633 2.52051,-1.18945 1.47266,-0.45313 3.25684,-0.45313 3.54004,0 5.60742,2.32227 2.06738,2.32226 2.06738,7.13672 v 14.18847 q 0,0.99122 0.33985,1.64258 0.33984,0.62305 1.16113,0.96289 0.65137,0.25489 1.27441,0.39649 0.65137,0.11328 1.44434,0.16992 z m 28.06543,-6.57031 q -1.75586,3.34179 -4.70117,5.32422 -2.94532,1.98242 -6.76856,1.98242 -3.37012,0 -5.91894,-1.18946 -2.52051,-1.18945 -4.16309,-3.22851 -1.64258,-2.03906 -2.46387,-4.75781 -0.79297,-2.71875 -0.79297,-5.74903 0,-2.71875 0.84961,-5.32422 0.87793,-2.63378 2.54883,-4.72949 1.61426,-2.01074 3.99317,-3.22851 2.40722,-1.2461 5.38086,-1.2461 3.05859,0 5.23925,0.96289 2.18067,0.96289 3.54004,2.63379 1.30274,1.58594 1.92578,3.73828 0.65137,2.15235 0.65137,4.67286 v 1.86914 H 846.2793 q 0,2.74707 0.50976,4.98437 0.53809,2.23731 1.6709,3.93652 1.10449,1.64258 2.88867,2.60547 1.78418,0.93457 4.24805,0.93457 2.52051,0 4.33301,-1.16113 1.84082,-1.18945 3.54004,-4.24805 z m -6.25879,-10.64844 q 0,-1.58594 -0.2832,-3.39844 -0.25489,-1.8125 -0.84961,-3.03027 -0.65137,-1.30274 -1.78418,-2.12402 -1.13282,-0.82129 -2.917,-0.82129 -2.97363,0 -4.95605,2.49218 -1.9541,2.46387 -2.12402,6.88184 z M 920.875,196 h -16.7373 v -2.01074 q 2.20898,-0.1416 3.65332,-0.56641 1.47265,-0.4248 1.47265,-1.04785 0,-0.25488 -0.0566,-0.62305 -0.0566,-0.36816 -0.16992,-0.65136 l -3.3418,-9.00586 h -14.07519 q -0.79297,1.98242 -1.30274,3.45507 -0.48144,1.47266 -0.87793,2.71875 -0.36816,1.21778 -0.50976,1.98243 -0.1416,0.76464 -0.1416,1.24609 0,1.13281 1.78418,1.75586 1.78418,0.62305 4.02148,0.73633 V 196 H 879.4707 v -2.01074 q 0.73633,-0.0566 1.84082,-0.31153 1.1045,-0.2832 1.8125,-0.73632 1.13282,-0.76465 1.75586,-1.58594 0.62305,-0.84961 1.21778,-2.32227 3.03027,-7.56152 6.68359,-16.99218 3.65332,-9.43067 6.51367,-16.79395 h 2.26563 l 13.3955,34.66406 q 0.42481,1.10449 0.9629,1.78418 0.53808,0.67969 1.50097,1.33106 0.65137,0.39648 1.69922,0.67968 1.04785,0.25489 1.75586,0.28321 z m -16.19922,-16.42578 -6.08887,-15.57617 -5.97558,15.57617 z m 46.8418,15.91601 -9.09082,0.62305 -0.42481,-0.39648 v -3.54004 h -0.16992 q -0.67969,0.70801 -1.5293,1.52929 -0.84961,0.79297 -1.9541,1.44434 -1.27441,0.76465 -2.46386,1.16113 -1.18946,0.39649 -3.37012,0.39649 -3.70996,0 -5.66406,-2.40723 -1.92579,-2.43555 -1.92579,-7.05176 v -13.36718 q 0,-1.01954 -0.39648,-1.69922 -0.36816,-0.70801 -1.10449,-1.21778 -0.50977,-0.33984 -1.27442,-0.48144 -0.76464,-0.16992 -1.61425,-0.22656 v -1.84082 l 9.31738,-0.67969 0.4248,0.39648 v 19.39942 q 0,3.03027 1.35938,4.55957 1.35937,1.52929 3.25683,1.52929 1.55762,0 2.7754,-0.48144 1.21777,-0.48145 2.03906,-1.13281 0.76465,-0.59473 1.33105,-1.2461 0.59473,-0.67969 0.90625,-1.24609 v -15.83106 q 0,-0.93457 -0.39648,-1.64257 -0.39649,-0.73633 -1.10449,-1.2461 -0.50977,-0.33984 -1.5293,-0.39648 -0.99121,-0.085 -2.23731,-0.1416 v -1.84082 l 10.13868,-0.67969 0.4248,0.39648 v 22.17481 q 0,0.96289 0.39649,1.64258 0.39648,0.67968 1.10449,1.16113 0.50976,0.31152 1.21777,0.4248 0.70801,0.085 1.55762,0.11328 z m 20.67383,-0.708 q -1.84082,0.76464 -3.4834,1.27441 -1.64258,0.53809 -4.02149,0.53809 -3.51172,0 -4.95605,-1.75586 -1.41602,-1.78418 -1.41602,-5.0127 V 170.9082 h -5.04101 v -2.71875 h 5.15429 v -8.69433 h 5.1543 v 8.69433 h 8.01465 v 2.71875 h -7.95801 v 15.6045 q 0,1.75585 0.11328,2.94531 0.1416,1.16113 0.62305,2.03906 0.45312,0.82129 1.35937,1.24609 0.90625,0.42481 2.43555,0.42481 0.70801,0 2.06738,-0.11328 1.3877,-0.1416 1.95411,-0.33985 z M 1005.2979,196 h -13.70708 v -1.86914 q 0.65137,-0.0566 1.44434,-0.11328 0.79296,-0.0566 1.30273,-0.22656 0.79297,-0.25489 1.16113,-0.87793 0.39649,-0.65137 0.39649,-1.6709 v -14.3584 q 0,-2.97363 -1.41602,-4.58789 -1.38769,-1.61426 -3.39844,-1.61426 -1.47265,0 -2.74707,0.48145 -1.24609,0.45312 -2.2373,1.13281 -0.96289,0.70801 -1.47266,1.41601 -0.50976,0.70801 -0.79297,1.18946 v 16.05761 q 0,0.96289 0.36817,1.58594 0.39648,0.62305 1.18945,0.96289 0.62305,0.28321 1.27442,0.42481 0.67968,0.1416 1.47265,0.19824 V 196 h -13.70703 v -1.86914 q 0.65137,-0.0566 1.35938,-0.11328 0.708,-0.085 1.18945,-0.22656 0.79297,-0.25489 1.18945,-0.87793 0.39649,-0.65137 0.39649,-1.6709 v -32.51172 q 0,-0.96289 -0.45313,-1.92578 -0.4248,-0.96289 -1.13281,-1.44434 -0.50977,-0.36816 -1.8125,-0.50976 -1.27442,-0.16993 -2.06738,-0.22657 v -1.8125 l 10.33691,-0.65136 0.39648,0.4248 v 19.48438 h 0.11329 q 0.93457,-0.93457 1.69921,-1.64258 0.76465,-0.73633 2.01075,-1.5293 1.07617,-0.67969 2.5205,-1.13281 1.47266,-0.45313 3.28516,-0.45313 3.73828,0 5.74902,2.37891 2.01072,2.35059 2.01072,6.79687 v 14.52832 q 0,0.99122 0.3399,1.61426 0.3681,0.59473 1.1894,0.93457 0.6514,0.25489 1.1612,0.39649 0.538,0.11328 1.3877,0.16992 z m 30.6425,-14.24512 q 0,2.94532 -0.9345,5.80567 -0.9346,2.83203 -2.6621,4.81445 -1.9542,2.26562 -4.5313,3.37012 -2.5771,1.10449 -5.7773,1.10449 -2.6622,0 -5.0694,-0.99121 -2.4072,-1.01953 -4.2763,-2.94531 -1.8409,-1.89747 -2.9454,-4.61622 -1.0761,-2.74707 -1.0761,-6.1455 0,-6.542 3.7949,-10.70508 3.8232,-4.16309 9.9971,-4.16309 5.8623,0 9.6572,3.96485 3.8232,3.93652 3.8232,10.50683 z m -5.8623,0.0566 q 0,-2.12402 -0.4248,-4.47461 -0.4248,-2.3789 -1.2744,-4.02148 -0.9062,-1.75586 -2.3789,-2.80371 -1.4727,-1.07617 -3.5967,-1.07617 -2.1806,0 -3.7383,1.07617 -1.5293,1.07617 -2.4921,2.94531 -0.9063,1.72754 -1.2745,3.93652 -0.3681,2.20899 -0.3681,4.27637 0,2.71875 0.4248,5.04102 0.4531,2.29394 1.416,4.10644 0.9629,1.8125 2.4072,2.86035 1.4727,1.01954 3.625,1.01954 3.5401,0 5.6074,-3.42676 2.0674,-3.42676 2.0674,-9.45899 z m 31.294,-10.13867 q 0,1.44434 -0.708,2.57715 -0.708,1.10449 -2.1807,1.10449 -1.5859,0 -2.4355,-0.82129 -0.8213,-0.82129 -0.8213,-1.8125 0,-0.62304 0.085,-1.13281 0.1133,-0.50977 0.1983,-1.01953 -1.3311,0 -3.1153,1.07617 -1.7841,1.07617 -3.0302,3.05859 v 16.25586 q 0,0.99122 0.3681,1.61426 0.3965,0.62305 1.2178,0.93457 0.708,0.28321 1.8125,0.42481 1.1328,0.1416 1.9541,0.19824 V 196 h -14.7266 v -1.86914 q 0.6514,-0.0566 1.3311,-0.11328 0.708,-0.0566 1.2178,-0.22656 0.7929,-0.25489 1.1611,-0.87793 0.3965,-0.65137 0.3965,-1.6709 v -17.24707 q 0,-0.87793 -0.4248,-1.72754 -0.3965,-0.84961 -1.1328,-1.35938 -0.5381,-0.33984 -1.2745,-0.48144 -0.7363,-0.16992 -1.5859,-0.22656 v -1.84083 l 9.2891,-0.62304 0.3965,0.39648 v 3.93653 h 0.1416 q 1.7558,-2.29395 3.9082,-3.4834 2.1523,-1.18946 3.9365,-1.18946 1.7842,0 2.8887,1.16114 1.1328,1.16113 1.1328,3.11523 z M 1077.3164,196 h -13.5088 v -1.86914 q 0.6514,-0.0566 1.3311,-0.11328 0.708,-0.0566 1.2177,-0.22656 0.793,-0.25489 1.1612,-0.87793 0.3965,-0.65137 0.3965,-1.6709 v -17.24707 q 0,-0.90625 -0.4248,-1.64258 -0.3965,-0.76465 -1.1329,-1.27442 -0.538,-0.33984 -1.5576,-0.5664 -1.0195,-0.25488 -1.8691,-0.31152 v -1.84083 l 9.8555,-0.62304 0.3964,0.39648 v 22.76953 q 0,0.99121 0.3682,1.64258 0.3965,0.65137 1.2178,0.96289 0.623,0.25489 1.2178,0.42481 0.5947,0.1416 1.331,0.19824 z m -3.5684,-39.28027 q 0,1.61425 -1.0761,2.83203 -1.0479,1.18945 -2.6055,1.18945 -1.4443,0 -2.5205,-1.13281 -1.0479,-1.16113 -1.0479,-2.63379 0,-1.55762 1.0479,-2.71875 1.0762,-1.16113 2.5205,-1.16113 1.6143,0 2.6338,1.10449 1.0478,1.07617 1.0478,2.52051 z m 24.2422,38.0625 q -1.8408,0.76464 -3.4834,1.27441 -1.6425,0.53809 -4.0214,0.53809 -3.5118,0 -4.9561,-1.75586 -1.416,-1.78418 -1.416,-5.0127 V 170.9082 h -5.041 v -2.71875 h 5.1543 v -8.69433 h 5.1543 v 8.69433 h 8.0146 v 2.71875 h -7.958 v 15.6045 q 0,1.75585 0.1133,2.94531 0.1416,1.16113 0.623,2.03906 0.4532,0.82129 1.3594,1.24609 0.9063,0.42481 2.4356,0.42481 0.708,0 2.0673,-0.11328 1.3877,-0.1416 1.9541,-0.33985 z m 0.6514,10.33691 q 0,-1.41602 0.7647,-2.32227 0.7929,-0.87792 1.9541,-0.87792 0.9062,0 1.5576,0.33984 0.6513,0.33984 1.1611,0.87793 0.4248,0.4248 0.9063,1.16113 0.4814,0.73633 0.7646,1.21777 1.416,-0.76464 3.3701,-3.99316 1.9824,-3.22851 2.8604,-5.66406 -2.6905,-6.71192 -4.8711,-12.00781 -2.1807,-5.2959 -4.5596,-10.95997 -0.5381,-1.30273 -1.8125,-2.01074 -1.2744,-0.73633 -2.5488,-0.93457 v -1.86914 h 12.7441 v 1.98242 q -0.8496,0.0283 -2.039,0.36817 -1.1895,0.31152 -1.1895,0.87793 0,0 0.1416,0.4248 0.1699,0.42481 0.2832,0.82129 1.0762,2.80371 3.2852,8.09961 2.2089,5.26758 3.4267,8.43945 1.2744,-3.03027 2.6338,-6.25879 1.3877,-3.25683 3.0869,-7.6748 0.1983,-0.53809 0.5664,-1.47266 0.3682,-0.96289 0.3682,-1.64257 0,-0.73633 -1.3027,-1.35938 -1.2745,-0.65137 -2.4356,-0.79297 v -1.8125 h 10.3652 v 1.75586 q -0.8496,0.1416 -2.2373,0.99121 -1.3877,0.82129 -2.0673,2.35059 -3.3702,7.8164 -6.0039,14.24512 -2.6055,6.42871 -3.9649,9.45898 -1.7842,3.96484 -3.2002,6.17383 -1.3877,2.2373 -2.7187,3.51172 -1.3028,1.18945 -2.3789,1.58593 -1.0479,0.42481 -2.1807,0.42481 -2.209,0 -3.4834,-1.04785 -1.2461,-1.04785 -1.2461,-2.40723 z"
     id="text2"
     style="font-size:58px;font-family:Georgia, serif;text-anchor:middle;fill:#ffffff"
     aria-label="The Anywhere on Earth Time Authority" />
  <path
     d="m 489.83179,237.29248 -0.19776,0.87012 q -0.32959,0.0132 -0.8042,0.1582 -0.47461,0.13184 -0.8833,0.35596 -0.54052,0.30322 -0.90966,0.69873 -0.36915,0.39551 -0.73829,1.08105 -1.35791,2.51807 -3.6914,6.89502 -2.32031,4.37696 -4.77246,8.88574 h -1.17334 l -1.5293,-14.42285 -8.18701,14.42285 h -1.16016 q -0.30322,-5.99853 -0.51416,-10.08544 -0.21094,-4.1001 -0.3164,-6.20948 -0.0264,-0.42187 -0.15821,-0.71191 -0.13183,-0.29004 -0.51416,-0.59326 -0.27685,-0.22412 -0.71191,-0.32959 -0.42188,-0.11866 -0.76465,-0.14502 l 0.19775,-0.87012 h 7.52784 l -0.19776,0.87012 q -1.56885,0.0923 -2.10937,0.34277 -0.52735,0.23731 -0.52735,0.58008 0,0.26367 0.0132,0.77783 0.0132,0.51416 0.0396,1.05469 0.0395,0.90967 0.18457,3.67822 0.1582,2.75537 0.38232,6.94776 l 7.85742,-13.9878 h 1.21289 l 1.56885,14.29102 q 1.64795,-3.15088 2.87403,-5.58985 1.22607,-2.45214 2.18847,-4.40332 0.58008,-1.1997 0.8042,-1.81933 0.23731,-0.61963 0.23731,-0.87012 0,-0.42187 -0.60645,-0.67236 -0.59326,-0.26367 -1.72705,-0.32959 l 0.19775,-0.87012 z m 11.33789,17.17822 -0.19776,0.84375 q -1.18652,0.47461 -1.8457,0.68555 -0.65918,0.22412 -1.33154,0.22412 -1.05469,0 -1.58203,-0.54053 -0.52735,-0.55371 -0.52735,-1.35791 0,-0.29004 0.0527,-0.63281 0.0527,-0.35596 0.17138,-0.83057 l 1.292,-4.91748 q 0.14502,-0.56689 0.22412,-1.02832 0.0923,-0.46142 0.0923,-0.73828 0,-0.8833 -0.42187,-1.39746 -0.42188,-0.51416 -1.25244,-0.51416 -0.84375,0 -1.83252,0.54053 -0.97559,0.54053 -1.85889,1.51611 L 489.92407,256 h -2.45215 l 3.91553,-16.96729 q 0.0659,-0.30322 0.10547,-0.51416 0.0527,-0.21093 0.0527,-0.44824 0,-0.47461 -0.1582,-0.7251 -0.1582,-0.26367 -0.44824,-0.3955 -0.25049,-0.11866 -0.68555,-0.15821 -0.43506,-0.0396 -0.87012,-0.0923 l 0.18458,-0.8042 4.89111,-0.30322 0.13183,0.19775 -2.10937,9.12305 h 0.0527 q 1.35791,-1.09424 2.42579,-1.64795 1.06787,-0.5669 2.42578,-0.5669 1.26562,0 1.97754,0.73829 0.71191,0.72509 0.71191,1.91162 0,0.2373 -0.0791,0.84375 -0.0659,0.60644 -0.22412,1.1997 l -1.10743,4.23194 q -0.10546,0.42187 -0.22412,0.97558 -0.11865,0.54053 -0.11865,0.84375 0,0.75147 0.32959,1.02832 0.32959,0.26367 1.08106,0.26367 0.25048,0 0.71191,-0.0791 0.47461,-0.0923 0.7251,-0.18457 z m 12.97265,-9.03076 q 0,1.39746 -0.8833,2.39942 -0.87011,1.00195 -2.54443,1.59521 -1.22607,0.44824 -2.47852,0.7251 -1.25244,0.27685 -2.76855,0.46142 0,2.08301 0.76465,3.19043 0.77783,1.09424 2.26758,1.09424 1.31836,0 2.32031,-0.65918 1.01514,-0.65918 1.99072,-1.96435 l 0.75147,0.55371 q -1.05469,1.6084 -2.63672,2.5708 -1.58203,0.9624 -3.28272,0.9624 -2.33349,0 -3.57275,-1.30518 -1.22608,-1.30517 -1.22608,-3.70459 0,-1.66113 0.51416,-3.16406 0.52735,-1.51611 1.5293,-2.76855 0.97559,-1.22608 2.38623,-1.97754 1.42383,-0.75147 3.1377,-0.75147 1.89843,0 2.8081,0.77784 0.92285,0.76464 0.92285,1.96435 z m -2.42578,-0.32959 q 0,-0.51416 -0.14502,-0.8042 -0.14502,-0.30322 -0.36914,-0.44824 -0.2373,-0.1582 -0.50097,-0.19775 -0.26368,-0.0395 -0.54053,-0.0395 -1.58203,0 -2.92676,1.74023 -1.33154,1.74023 -1.6875,4.3374 0.92285,-0.13183 2.08301,-0.36914 1.16015,-0.25049 1.9248,-0.64599 1.09424,-0.5669 1.62159,-1.4502 0.54052,-0.89648 0.54052,-2.12256 z m 15.53028,-0.26367 q 0,0.36914 -0.10547,0.81738 -0.10547,0.43506 -0.30323,0.7251 -0.2373,0.35596 -0.52734,0.55371 -0.27685,0.18457 -0.8042,0.18457 -0.71191,0 -1.06787,-0.35596 -0.35596,-0.35595 -0.35596,-0.79101 0,-0.40869 0.19776,-0.90967 0.19775,-0.51416 0.40869,-1.01514 -0.1582,0 -0.52734,0.0923 -0.35596,0.0791 -0.87012,0.32959 -0.51416,0.25049 -1.17334,0.75146 -0.646,0.50098 -1.38428,1.33155 L 518.61157,256 h -2.45215 l 1.92481,-8.54297 q 0.0659,-0.31641 0.18457,-0.94922 0.13183,-0.63281 0.13183,-0.93603 0,-0.73828 -0.25048,-0.98877 -0.25049,-0.25049 -1.00196,-0.25049 -0.29004,0 -0.73828,0.10547 -0.44824,0.0923 -0.69873,0.1582 l 0.19776,-0.84375 q 1.02832,-0.46142 1.81933,-0.68555 0.79102,-0.22412 1.35791,-0.22412 1.05469,0 1.50293,0.58008 0.44824,0.5669 0.44824,1.71387 h 0.0791 q 1.56884,-1.35791 2.37304,-1.89844 0.81738,-0.54053 1.70069,-0.54053 0.42187,0 0.81738,0.10547 0.39551,0.10547 0.67236,0.35596 0.29004,0.27686 0.42188,0.646 0.14502,0.35595 0.14502,1.0415 z m 12.08935,0.59326 q 0,1.39746 -0.8833,2.39942 -0.87012,1.00195 -2.54443,1.59521 -1.22608,0.44824 -2.47852,0.7251 -1.25244,0.27685 -2.76855,0.46142 0,2.08301 0.76465,3.19043 0.77783,1.09424 2.26757,1.09424 1.31836,0 2.32032,-0.65918 1.01513,-0.65918 1.99072,-1.96435 l 0.75146,0.55371 q -1.05468,1.6084 -2.63672,2.5708 -1.58203,0.9624 -3.28271,0.9624 -2.3335,0 -3.57275,-1.30518 -1.22608,-1.30517 -1.22608,-3.70459 0,-1.66113 0.51416,-3.16406 0.52735,-1.51611 1.5293,-2.76855 0.97558,-1.22608 2.38623,-1.97754 1.42383,-0.75147 3.13769,-0.75147 1.89844,0 2.80811,0.77784 0.92285,0.76464 0.92285,1.96435 z m -2.42578,-0.32959 q 0,-0.51416 -0.14502,-0.8042 -0.14502,-0.30322 -0.36914,-0.44824 -0.2373,-0.1582 -0.50098,-0.19775 -0.26367,-0.0395 -0.54052,-0.0395 -1.58203,0 -2.92676,1.74023 -1.33154,1.74023 -1.6875,4.3374 0.92285,-0.13183 2.08301,-0.36914 1.16015,-0.25049 1.9248,-0.64599 1.09424,-0.5669 1.62158,-1.4502 0.54053,-0.89648 0.54053,-2.12256 z m 21.67383,0.32959 q 0,1.39746 -0.8833,2.39942 -0.87012,1.00195 -2.54444,1.59521 -1.22607,0.44824 -2.47851,0.7251 -1.25244,0.27685 -2.76856,0.46142 0,2.08301 0.76465,3.19043 0.77783,1.09424 2.26758,1.09424 1.31836,0 2.32031,-0.65918 1.01514,-0.65918 1.99073,-1.96435 l 0.75146,0.55371 q -1.05469,1.6084 -2.63672,2.5708 -1.58203,0.9624 -3.28271,0.9624 -2.3335,0 -3.57276,-1.30518 -1.22607,-1.30517 -1.22607,-3.70459 0,-1.66113 0.51416,-3.16406 0.52734,-1.51611 1.5293,-2.76855 0.97558,-1.22608 2.38623,-1.97754 1.42382,-0.75147 3.13769,-0.75147 1.89844,0 2.80811,0.77784 0.92285,0.76464 0.92285,1.96435 z m -2.42578,-0.32959 q 0,-0.51416 -0.14502,-0.8042 -0.14502,-0.30322 -0.36914,-0.44824 -0.23731,-0.1582 -0.50098,-0.19775 -0.26367,-0.0395 -0.54053,-0.0395 -1.58203,0 -2.92675,1.74023 -1.33155,1.74023 -1.6875,4.3374 0.92285,-0.13183 2.083,-0.36914 1.16016,-0.25049 1.92481,-0.64599 1.09424,-0.5669 1.62158,-1.4502 0.54053,-0.89648 0.54053,-2.12256 z m 16.65088,0.0264 q 0,2.0039 -0.60645,4.07373 -0.60644,2.05664 -1.66113,3.59912 -1.06787,1.59522 -2.54444,2.59717 -1.47656,0.98877 -3.24316,0.98877 -1.72705,0 -2.75537,-0.94922 -1.02832,-0.9624 -1.02832,-2.5708 0,-0.30322 0.0659,-0.68555 0.0791,-0.38232 0.10547,-0.51416 l 1.14697,-4.21875 q 0.13183,-0.51416 0.22412,-1.00195 0.10547,-0.50098 0.10547,-0.87012 0,-0.73828 -0.26367,-0.98877 -0.25049,-0.25049 -1.00196,-0.25049 -0.27685,0 -0.75146,0.11866 -0.47461,0.11865 -0.71192,0.18457 l 0.19776,-0.84375 q 1.02832,-0.46143 1.81933,-0.71192 0.8042,-0.25049 1.27881,-0.25049 1.05469,0 1.55567,0.4878 0.51416,0.48779 0.51416,1.41064 0,0.26367 -0.0527,0.646 -0.0396,0.36914 -0.1582,0.81738 l -1.26563,4.91748 q -0.13183,0.50098 -0.19775,0.9624 -0.0659,0.46143 -0.0659,0.59326 0,0.68555 0.21094,1.12061 0.22412,0.42187 0.55371,0.65918 0.31641,0.22412 0.68555,0.31641 0.38232,0.0923 0.77783,0.0923 0.89648,0 1.8457,-0.56689 0.96241,-0.5669 1.67432,-1.47657 0.77783,-0.98877 1.25244,-2.20166 0.47461,-1.22607 0.47461,-2.70263 0,-0.79102 -0.22412,-1.21289 -0.21094,-0.43506 -0.47461,-0.75147 -0.26367,-0.32959 -0.48779,-0.68555 -0.21094,-0.36914 -0.21094,-1.02832 0,-0.75146 0.50098,-1.14697 0.50097,-0.39551 1.05468,-0.39551 0.77784,0 1.21289,0.63282 0.44825,0.61963 0.44825,1.80615 z m 13.03857,0.30322 q 0,1.39746 -0.8833,2.39942 -0.87012,1.00195 -2.54443,1.59521 -1.22608,0.44824 -2.47852,0.7251 -1.25244,0.27685 -2.76855,0.46142 0,2.08301 0.76464,3.19043 0.77784,1.09424 2.26758,1.09424 1.31836,0 2.32031,-0.65918 1.01514,-0.65918 1.99073,-1.96435 l 0.75146,0.55371 q -1.05469,1.6084 -2.63672,2.5708 -1.58203,0.9624 -3.28271,0.9624 -2.3335,0 -3.57276,-1.30518 -1.22607,-1.30517 -1.22607,-3.70459 0,-1.66113 0.51416,-3.16406 0.52734,-1.51611 1.5293,-2.76855 0.97558,-1.22608 2.38623,-1.97754 1.42383,-0.75147 3.13769,-0.75147 1.89844,0 2.80811,0.77784 0.92285,0.76464 0.92285,1.96435 z m -2.42578,-0.32959 q 0,-0.51416 -0.14502,-0.8042 -0.14502,-0.30322 -0.36914,-0.44824 -0.23731,-0.1582 -0.50098,-0.19775 -0.26367,-0.0395 -0.54052,-0.0395 -1.58204,0 -2.92676,1.74023 -1.33155,1.74023 -1.6875,4.3374 0.92285,-0.13183 2.08301,-0.36914 1.16015,-0.25049 1.9248,-0.64599 1.09424,-0.5669 1.62158,-1.4502 0.54053,-0.89648 0.54053,-2.12256 z m 15.53027,-0.26367 q 0,0.36914 -0.10547,0.81738 -0.10546,0.43506 -0.30322,0.7251 -0.2373,0.35596 -0.52734,0.55371 -0.27686,0.18457 -0.8042,0.18457 -0.71192,0 -1.06787,-0.35596 -0.35596,-0.35595 -0.35596,-0.79101 0,-0.40869 0.19775,-0.90967 0.19776,-0.51416 0.4087,-1.01514 -0.15821,0 -0.52735,0.0923 -0.35596,0.0791 -0.87012,0.32959 -0.51416,0.25049 -1.17334,0.75146 -0.64599,0.50098 -1.38427,1.33155 L 590.31714,256 h -2.45215 l 1.9248,-8.54297 q 0.0659,-0.31641 0.18458,-0.94922 0.13183,-0.63281 0.13183,-0.93603 0,-0.73828 -0.25049,-0.98877 -0.25049,-0.25049 -1.00195,-0.25049 -0.29004,0 -0.73828,0.10547 -0.44824,0.0923 -0.69873,0.1582 l 0.19775,-0.84375 q 1.02832,-0.46142 1.81934,-0.68555 0.79101,-0.22412 1.35791,-0.22412 1.05469,0 1.50293,0.58008 0.44824,0.5669 0.44824,1.71387 h 0.0791 q 1.56885,-1.35791 2.37305,-1.89844 0.81738,-0.54053 1.70068,-0.54053 0.42188,0 0.81738,0.10547 0.39551,0.10547 0.67237,0.35596 0.29004,0.27686 0.42187,0.646 0.14502,0.35595 0.14502,1.0415 z m 9.33399,9.2417 h -0.0791 q -1.2129,1.01514 -2.30713,1.59521 -1.09424,0.58008 -2.4917,0.58008 -1.26563,0 -2.00391,-0.7251 -0.73828,-0.73828 -0.73828,-1.9248 0,-0.31641 0.0527,-0.75147 0.0527,-0.43505 0.25049,-1.29199 l 1.02832,-4.11328 q 0.14502,-0.59326 0.22412,-1.02832 0.0791,-0.44824 0.0791,-0.85693 0,-0.73828 -0.25049,-0.97559 -0.23731,-0.25049 -0.98877,-0.25049 -0.29004,0 -0.73828,0.10547 -0.44825,0.10547 -0.69873,0.17139 l 0.19775,-0.84375 q 1.02832,-0.46143 1.80615,-0.69873 0.79102,-0.23731 1.26563,-0.23731 1.05468,0 1.55566,0.47461 0.51416,0.47461 0.51416,1.42383 0,0.23731 -0.0527,0.646 -0.0527,0.40869 -0.15821,0.81738 l -1.1997,4.81201 q -0.13184,0.55371 -0.22412,1.04151 -0.0923,0.4746 -0.0923,0.72509 0,0.8833 0.42188,1.39746 0.43505,0.51416 1.26562,0.51416 0.9624,0 1.87207,-0.47461 0.92285,-0.4746 1.72705,-1.30517 l 2.18848,-9.86133 2.28076,-0.1582 0.1582,0.19775 -2.26758,10.32276 q -0.50097,2.26757 -1.2788,3.87597 -0.77784,1.6084 -1.81934,2.59717 -1.09424,1.0415 -2.35986,1.50293 -1.26563,0.46143 -2.88721,0.46143 -1.12061,0 -1.77979,-0.15821 -0.65917,-0.1582 -1.0415,-0.43506 -0.38232,-0.26367 -0.51416,-0.59326 -0.13184,-0.32959 -0.13184,-0.65918 0,-0.56689 0.34278,-1.00195 0.34277,-0.43506 0.98877,-0.43506 0.48779,0 0.83056,0.27686 0.34278,0.27685 0.55372,0.60644 0.2373,0.35596 0.43505,0.8042 0.19776,0.44824 0.31641,0.71191 h 0.31641 q 0.75146,0 1.58203,-0.36914 0.84375,-0.36914 1.54248,-1.14697 0.75146,-0.84375 1.34472,-2.17529 0.60645,-1.33154 0.96241,-3.19043 z m 21.46289,0.10547 h -0.0923 q -0.29004,0.25049 -0.75146,0.65918 -0.46143,0.39551 -0.9624,0.69873 -0.63282,0.39551 -1.17334,0.60644 -0.52735,0.21094 -1.30518,0.21094 -1.91162,0 -3.00586,-1.37109 -1.08105,-1.38428 -1.08105,-3.75733 0,-1.66113 0.58007,-3.20361 0.59327,-1.54248 1.6084,-2.74219 0.98877,-1.16015 2.37305,-1.87207 1.39746,-0.7251 2.91357,-0.7251 0.90967,0 1.80616,0.23731 0.89648,0.2373 1.47656,0.58008 l 1.02832,-4.48243 q 0.0791,-0.35595 0.10547,-0.55371 0.0396,-0.19775 0.0396,-0.43505 0,-0.47461 -0.19776,-0.7251 -0.18457,-0.25049 -0.52734,-0.36914 -0.31641,-0.11866 -0.87012,-0.15821 -0.55371,-0.0396 -1.00195,-0.0923 l 0.18457,-0.8042 5.33936,-0.30322 0.13183,0.19775 -3.65185,15.80713 q -0.10547,0.43506 -0.22412,1.00195 -0.10547,0.55371 -0.10547,0.84375 0,0.75147 0.3164,1.02832 0.31641,0.26367 1.06787,0.26367 0.25049,0 0.71192,-0.0791 0.46142,-0.0791 0.71191,-0.17138 l -0.19775,0.84375 q -1.10742,0.50097 -1.83252,0.69873 -0.7251,0.19775 -1.34473,0.19775 -0.94922,0 -1.51611,-0.48779 -0.55371,-0.50098 -0.55371,-1.54248 z m 1.85888,-8.39795 q -0.0264,-0.38233 -0.19775,-0.73828 -0.17139,-0.36914 -0.43506,-0.65918 -0.30322,-0.32959 -0.79101,-0.54053 -0.47461,-0.22412 -1.13379,-0.22412 -1.01514,0 -1.92481,0.63281 -0.89648,0.63281 -1.58203,1.6875 -0.65918,1.01514 -1.05469,2.45215 -0.3955,1.42383 -0.3955,2.86084 0,0.8042 0.0923,1.42383 0.0923,0.61963 0.35596,1.14697 0.25049,0.48779 0.71191,0.77783 0.46143,0.27686 1.22608,0.27686 0.72509,0 1.56884,-0.43506 0.85694,-0.43506 1.89844,-1.51611 z m 13.55274,8.46387 h -0.0923 q -0.29004,0.2373 -0.69873,0.60644 -0.3955,0.35596 -0.93603,0.68555 -0.51416,0.32959 -1.12061,0.56689 -0.60644,0.25049 -1.31836,0.25049 -1.91162,0 -3.00586,-1.37109 -1.08105,-1.3711 -1.08105,-3.74414 0,-1.63477 0.60644,-3.17725 0.60645,-1.54248 1.67432,-2.76855 1.01514,-1.17334 2.4126,-1.88526 1.39746,-0.7251 2.87402,-0.7251 0.93604,0 1.77979,0.25049 0.85693,0.25049 1.34472,0.5669 l 2.4126,-0.61963 0.1582,0.19775 -2.0039,8.50342 q -0.10547,0.40869 -0.22412,1.00195 -0.10547,0.58008 -0.10547,0.85694 0,0.75146 0.3164,1.01513 0.31641,0.26367 1.06788,0.26367 0.25048,0 0.71191,-0.0791 0.46143,-0.0791 0.71191,-0.17138 l -0.19775,0.84375 q -1.18652,0.47461 -1.7666,0.68554 -0.58008,0.21094 -1.41065,0.21094 -0.94922,0 -1.50293,-0.55371 -0.55371,-0.55371 -0.60644,-1.41064 z m 1.88525,-8.33204 q 0,-0.43505 -0.0923,-0.83056 -0.0923,-0.39551 -0.38233,-0.73828 -0.26367,-0.32959 -0.72509,-0.52735 -0.46143,-0.19775 -1.16016,-0.19775 -0.9624,0 -1.87207,0.63281 -0.90967,0.63281 -1.63477,1.70069 -0.68554,1.00195 -1.1206,2.42578 -0.43506,1.42382 -0.43506,2.8872 0,0.8042 0.0923,1.42383 0.0923,0.61963 0.35596,1.13379 0.25049,0.50098 0.7251,0.77783 0.47461,0.27686 1.19971,0.27686 0.73828,0 1.54248,-0.40869 0.81738,-0.42188 1.83252,-1.46338 z m 13.85596,8.16065 h -0.0791 q -1.21289,1.01514 -2.30713,1.59521 -1.09424,0.58008 -2.4917,0.58008 -1.26563,0 -2.00391,-0.7251 -0.73828,-0.73828 -0.73828,-1.9248 0,-0.31641 0.0527,-0.75147 0.0527,-0.43505 0.25049,-1.29199 l 1.02832,-4.11328 q 0.14501,-0.59326 0.22412,-1.02832 0.0791,-0.44824 0.0791,-0.85693 0,-0.73828 -0.25049,-0.97559 -0.2373,-0.25049 -0.98877,-0.25049 -0.29004,0 -0.73828,0.10547 -0.44824,0.10547 -0.69873,0.17139 l 0.19775,-0.84375 q 1.02832,-0.46143 1.80615,-0.69873 0.79102,-0.23731 1.26563,-0.23731 1.05469,0 1.55566,0.47461 0.51416,0.47461 0.51416,1.42383 0,0.23731 -0.0527,0.646 -0.0527,0.40869 -0.1582,0.81738 l -1.19971,4.81201 q -0.13184,0.55371 -0.22412,1.04151 -0.0923,0.4746 -0.0923,0.72509 0,0.8833 0.42188,1.39746 0.43506,0.51416 1.26562,0.51416 0.96241,0 1.87207,-0.47461 0.92286,-0.4746 1.72705,-1.30517 l 2.18848,-9.86133 2.28076,-0.1582 0.15821,0.19775 -2.26758,10.32276 q -0.50098,2.26757 -1.27881,3.87597 -0.77783,1.6084 -1.81934,2.59717 -1.09424,1.0415 -2.35986,1.50293 -1.26563,0.46143 -2.88721,0.46143 -1.1206,0 -1.77978,-0.15821 -0.65918,-0.1582 -1.04151,-0.43506 -0.38232,-0.26367 -0.51416,-0.59326 -0.13183,-0.32959 -0.13183,-0.65918 0,-0.56689 0.34277,-1.00195 0.34277,-0.43506 0.98877,-0.43506 0.48779,0 0.83057,0.27686 0.34277,0.27685 0.55371,0.60644 0.2373,0.35596 0.43506,0.8042 0.19775,0.44824 0.3164,0.71191 h 0.31641 q 0.75146,0 1.58203,-0.36914 0.84375,-0.36914 1.54248,-1.14697 0.75147,-0.84375 1.34473,-2.17529 0.60644,-1.33154 0.9624,-3.19043 z m 24.37646,-8.64844 q 0,1.39746 -0.8833,2.39942 -0.87011,1.00195 -2.54443,1.59521 -1.22607,0.44824 -2.47852,0.7251 -1.25244,0.27685 -2.76855,0.46142 0,2.08301 0.76465,3.19043 0.77783,1.09424 2.26758,1.09424 1.31836,0 2.32031,-0.65918 1.01514,-0.65918 1.99072,-1.96435 l 0.75147,0.55371 q -1.05469,1.6084 -2.63672,2.5708 -1.58203,0.9624 -3.28272,0.9624 -2.33349,0 -3.57275,-1.30518 -1.22608,-1.30517 -1.22608,-3.70459 0,-1.66113 0.51416,-3.16406 0.52735,-1.51611 1.5293,-2.76855 0.97559,-1.22608 2.38623,-1.97754 1.42383,-0.75147 3.1377,-0.75147 1.89843,0 2.8081,0.77784 0.92285,0.76464 0.92285,1.96435 z m -2.42578,-0.32959 q 0,-0.51416 -0.14502,-0.8042 -0.14502,-0.30322 -0.36914,-0.44824 -0.2373,-0.1582 -0.50097,-0.19775 -0.26368,-0.0395 -0.54053,-0.0395 -1.58203,0 -2.92676,1.74023 -1.33154,1.74023 -1.6875,4.3374 0.92285,-0.13183 2.08301,-0.36914 1.16016,-0.25049 1.9248,-0.64599 1.09424,-0.5669 1.62159,-1.4502 0.54052,-0.89648 0.54052,-2.12256 z m 18.10108,9.36035 -0.19776,0.84375 q -1.18652,0.47461 -1.8457,0.68555 -0.65918,0.22412 -1.33154,0.22412 -1.05469,0 -1.58203,-0.54053 -0.52735,-0.55371 -0.52735,-1.35791 0,-0.29004 0.0527,-0.63281 0.0527,-0.35596 0.17138,-0.83057 l 1.292,-4.91748 q 0.14502,-0.56689 0.22412,-1.02832 0.0923,-0.46142 0.0923,-0.73828 0,-0.8833 -0.42187,-1.39746 -0.42188,-0.51416 -1.25244,-0.51416 -0.8042,0 -1.80616,0.52735 -1.00195,0.52734 -1.88525,1.52929 L 689.70825,256 h -2.45215 l 1.96436,-8.54297 q 0.0659,-0.31641 0.18457,-0.90967 0.13184,-0.60644 0.13184,-0.97558 0,-0.73828 -0.25049,-0.98877 -0.25049,-0.25049 -1.00196,-0.25049 -0.29004,0 -0.73828,0.10547 -0.44824,0.0923 -0.69873,0.1582 l 0.19776,-0.84375 q 1.02832,-0.46142 1.81933,-0.68555 0.79102,-0.22412 1.35791,-0.22412 1.04151,0 1.48975,0.5669 0.44824,0.56689 0.47461,1.56885 h 0.0791 q 1.45019,-1.16016 2.50488,-1.71387 1.05469,-0.5669 2.39942,-0.5669 1.26562,0 1.97754,0.73829 0.71191,0.72509 0.71191,1.91162 0,0.2373 -0.0791,0.84375 -0.0659,0.60644 -0.22412,1.1997 l -1.10743,4.23194 q -0.11865,0.42187 -0.2373,0.97558 -0.10547,0.54053 -0.10547,0.84375 0,0.75147 0.32959,1.02832 0.32959,0.26367 1.08106,0.26367 0.25048,0 0.71191,-0.0791 0.47461,-0.0923 0.7251,-0.18457 z m 10.07226,-0.27685 h -0.0923 q -0.29004,0.25049 -0.75147,0.65918 -0.46142,0.39551 -0.9624,0.69873 -0.63281,0.39551 -1.17334,0.60644 -0.52734,0.21094 -1.30517,0.21094 -1.91163,0 -3.00586,-1.37109 -1.08106,-1.38428 -1.08106,-3.75733 0,-1.66113 0.58008,-3.20361 0.59326,-1.54248 1.6084,-2.74219 0.98877,-1.16015 2.37304,-1.87207 1.39747,-0.7251 2.91358,-0.7251 0.90967,0 1.80615,0.23731 0.89649,0.2373 1.47656,0.58008 l 1.02832,-4.48243 q 0.0791,-0.35595 0.10547,-0.55371 0.0395,-0.19775 0.0395,-0.43505 0,-0.47461 -0.19775,-0.7251 -0.18457,-0.25049 -0.52734,-0.36914 -0.31641,-0.11866 -0.87012,-0.15821 -0.55371,-0.0396 -1.00195,-0.0923 l 0.18457,-0.8042 5.33935,-0.30322 0.13184,0.19775 -3.65186,15.80713 q -0.10547,0.43506 -0.22412,1.00195 -0.10547,0.55371 -0.10547,0.84375 0,0.75147 0.31641,1.02832 0.3164,0.26367 1.06787,0.26367 0.25049,0 0.71191,-0.0791 0.46143,-0.0791 0.71192,-0.17138 l -0.19776,0.84375 q -1.10742,0.50097 -1.83252,0.69873 -0.72509,0.19775 -1.34472,0.19775 -0.94922,0 -1.51612,-0.48779 -0.55371,-0.50098 -0.55371,-1.54248 z m 1.85889,-8.39795 q -0.0264,-0.38233 -0.19775,-0.73828 -0.17139,-0.36914 -0.43506,-0.65918 -0.30323,-0.32959 -0.79102,-0.54053 -0.47461,-0.22412 -1.13379,-0.22412 -1.01513,0 -1.9248,0.63281 -0.89649,0.63281 -1.58203,1.6875 -0.65918,1.01514 -1.05469,2.45215 -0.39551,1.42383 -0.39551,2.86084 0,0.8042 0.0923,1.42383 0.0923,0.61963 0.35595,1.14697 0.25049,0.48779 0.71192,0.77783 0.46142,0.27686 1.22607,0.27686 0.7251,0 1.56885,-0.43506 0.85693,-0.43506 1.89844,-1.51611 z m 9.14941,10.58642 q -1.95117,0 -3.25634,-0.68554 -1.292,-0.69873 -1.292,-1.81934 0,-0.52734 0.38233,-0.98877 0.38232,-0.46142 0.93603,-0.46142 0.52735,0 0.84375,0.25048 0.32959,0.23731 0.51416,0.5669 0.19776,0.34277 0.34278,0.81738 0.1582,0.47461 0.26367,0.77783 0.19775,0.22412 0.54053,0.42188 0.35595,0.18457 1.01513,0.18457 1.42383,0 2.14893,-0.71192 0.73828,-0.71191 0.73828,-1.9248 0,-0.89648 -0.68555,-1.42383 -0.68554,-0.54053 -2.04345,-0.98877 -0.4878,-0.1582 -1.14698,-0.47461 -0.65918,-0.32959 -1.05468,-0.69873 -0.47461,-0.42187 -0.76465,-1.00195 -0.29004,-0.58008 -0.29004,-1.37109 0,-1.6875 1.50293,-2.91358 1.51611,-1.23926 3.71777,-1.23926 0.51416,0 1.10742,0.0527 0.59327,0.0527 1.30518,0.29004 0.61963,0.21093 1.05469,0.63281 0.43506,0.40869 0.43506,1.06787 0,0.54053 -0.36915,0.98877 -0.35595,0.43506 -0.94921,0.43506 -0.4878,0 -0.8042,-0.21094 -0.31641,-0.21094 -0.52735,-0.56689 -0.21093,-0.35596 -0.34277,-0.76465 -0.13184,-0.40869 -0.29004,-0.8042 -0.25049,-0.10547 -0.44824,-0.14502 -0.19776,-0.0395 -0.52735,-0.0395 -1.29199,0 -1.96435,0.69873 -0.65918,0.68555 -0.65918,1.63477 0,0.92285 0.59326,1.39746 0.60645,0.46142 1.99072,0.9624 1.79297,0.64599 2.59717,1.47656 0.81738,0.83057 0.81738,2.05664 0,2.00391 -1.54248,3.26953 -1.54248,1.25244 -3.88916,1.25244 z m 21.29151,-20.59277 -3.67822,15.87305 q -0.11866,0.50097 -0.22413,1.00195 -0.10546,0.50098 -0.10546,0.81738 0,0.75147 0.32959,1.02832 0.34277,0.27686 1.09423,0.27686 0.26368,0 0.77784,-0.0659 0.52734,-0.0659 0.79101,-0.1582 l -0.19775,0.84375 q -1.18653,0.47461 -1.83252,0.67236 -0.63281,0.19776 -1.43701,0.19776 -1.05469,0 -1.6084,-0.54053 -0.54053,-0.55371 -0.54053,-1.35791 0,-0.30322 0.0527,-0.63281 0.0659,-0.32959 0.17139,-0.83057 l 3.20361,-13.88233 q 0.0923,-0.40869 0.11866,-0.56689 0.0396,-0.1582 0.0396,-0.39551 0,-0.47461 -0.15821,-0.7251 -0.1582,-0.26367 -0.44824,-0.3955 -0.27685,-0.11866 -0.69873,-0.15821 -0.42187,-0.0396 -0.85693,-0.0923 l 0.18457,-0.8042 4.89111,-0.30322 z m 8.96484,18.47022 h -0.0923 q -0.29004,0.2373 -0.69873,0.60644 -0.39551,0.35596 -0.93604,0.68555 -0.51416,0.32959 -1.1206,0.56689 -0.60645,0.25049 -1.31836,0.25049 -1.91163,0 -3.00586,-1.37109 -1.08106,-1.3711 -1.08106,-3.74414 0,-1.63477 0.60645,-3.17725 0.60644,-1.54248 1.67431,-2.76855 1.01514,-1.17334 2.4126,-1.88526 1.39746,-0.7251 2.87402,-0.7251 0.93604,0 1.77979,0.25049 0.85693,0.25049 1.34473,0.5669 l 2.41259,-0.61963 0.15821,0.19775 -2.00391,8.50342 q -0.10547,0.40869 -0.22412,1.00195 -0.10547,0.58008 -0.10547,0.85694 0,0.75146 0.31641,1.01513 0.3164,0.26367 1.06787,0.26367 0.25049,0 0.71191,-0.0791 0.46143,-0.0791 0.71192,-0.17138 l -0.19776,0.84375 q -1.18652,0.47461 -1.7666,0.68554 -0.58008,0.21094 -1.41064,0.21094 -0.94922,0 -1.50293,-0.55371 -0.55371,-0.55371 -0.60645,-1.41064 z m 1.88526,-8.33204 q 0,-0.43505 -0.0923,-0.83056 -0.0923,-0.39551 -0.38232,-0.73828 -0.26368,-0.32959 -0.7251,-0.52735 -0.46143,-0.19775 -1.16016,-0.19775 -0.9624,0 -1.87207,0.63281 -0.90967,0.63281 -1.63476,1.70069 -0.68555,1.00195 -1.12061,2.42578 -0.43506,1.42382 -0.43506,2.8872 0,0.8042 0.0923,1.42383 0.0923,0.61963 0.35595,1.13379 0.25049,0.50098 0.7251,0.77783 0.47461,0.27686 1.19971,0.27686 0.73828,0 1.54248,-0.40869 0.81738,-0.42188 1.83252,-1.46338 z m 9.17578,10.45459 q -1.95118,0 -3.25635,-0.68554 -1.29199,-0.69873 -1.29199,-1.81934 0,-0.52734 0.38232,-0.98877 0.38233,-0.46142 0.93604,-0.46142 0.52734,0 0.84375,0.25048 0.32959,0.23731 0.51416,0.5669 0.19775,0.34277 0.34277,0.81738 0.1582,0.47461 0.26367,0.77783 0.19776,0.22412 0.54053,0.42188 0.35596,0.18457 1.01514,0.18457 1.42382,0 2.14892,-0.71192 0.73828,-0.71191 0.73828,-1.9248 0,-0.89648 -0.68554,-1.42383 -0.68555,-0.54053 -2.04346,-0.98877 -0.48779,-0.1582 -1.14697,-0.47461 -0.65918,-0.32959 -1.05469,-0.69873 -0.47461,-0.42187 -0.76465,-1.00195 -0.29004,-0.58008 -0.29004,-1.37109 0,-1.6875 1.50293,-2.91358 1.51611,-1.23926 3.71777,-1.23926 0.51416,0 1.10743,0.0527 0.59326,0.0527 1.30517,0.29004 0.61963,0.21093 1.05469,0.63281 0.43506,0.40869 0.43506,1.06787 0,0.54053 -0.36914,0.98877 -0.35596,0.43506 -0.94922,0.43506 -0.48779,0 -0.8042,-0.21094 -0.31641,-0.21094 -0.52734,-0.56689 -0.21094,-0.35596 -0.34278,-0.76465 -0.13183,-0.40869 -0.29004,-0.8042 -0.25049,-0.10547 -0.44824,-0.14502 -0.19775,-0.0395 -0.52734,-0.0395 -1.29199,0 -1.96436,0.69873 -0.65918,0.68555 -0.65918,1.63477 0,0.92285 0.59326,1.39746 0.60645,0.46142 1.99073,0.9624 1.79297,0.64599 2.59716,1.47656 0.81739,0.83057 0.81739,2.05664 0,2.00391 -1.54248,3.26953 -1.54248,1.25244 -3.88916,1.25244 z m 10.86328,-0.10546 q -1.25244,0 -1.83252,-0.50098 -0.58008,-0.51416 -0.58008,-1.46338 0,-0.30322 0.0395,-0.56689 0.0395,-0.27686 0.10547,-0.61963 l 2.04346,-8.80664 h -2.34668 l 0.27685,-1.19971 h 2.39942 l 0.92285,-3.86279 h 2.37305 l -0.89649,3.86279 h 3.67822 l -0.27685,1.19971 h -3.65186 l -1.6875,7.26416 q -0.11865,0.50097 -0.19775,0.97558 -0.0791,0.46143 -0.0791,0.79102 0,0.7251 0.35595,1.06787 0.36914,0.32959 1.31836,0.32959 0.34278,0 0.96241,-0.0791 0.61962,-0.0923 0.9624,-0.22412 l -0.22412,0.9624 q -0.92285,0.35596 -1.74024,0.60644 -0.81738,0.26368 -1.9248,0.26368 z"
     id="text3"
     style="font-style:italic;font-size:27px;font-family:Georgia, serif;text-anchor:middle;fill:#9dbdda"
     aria-label="Where every day ends last" />
  <path
     d="m 474.94141,352 v -5.33203 q 1.36718,-3.00781 3.88281,-6.01563 2.54297,-3.03515 7.38281,-6.97265 3.77344,-3.08985 4.89453,-4.26563 1.1211,-1.17578 1.75,-2.26953 0.65625,-1.12109 0.65625,-2.26953 0,-1.96875 -1.28515,-3.08984 -1.28516,-1.1211 -3.77344,-1.1211 -2.46094,0 -3.77344,1.33985 -1.28516,1.3125 -1.66797,3.96484 l -7.73828,-0.4375 q 0.65625,-5.35938 3.99219,-8.17578 3.36328,-2.81641 9.13281,-2.81641 5.96094,0 9.43359,2.73438 3.47266,2.70703 3.47266,7.27343 0,2.98047 -1.88672,5.82422 -1.85937,2.81641 -5.60547,5.74219 -5.30468,4.10156 -7.13672,5.90625 -1.83203,1.80469 -2.65234,3.66406 h 17.88281 V 352 Z m 65.0039,-10.28125 q 0,5.16797 -3.71875,8.03906 -3.6914,2.8711 -10.22656,2.8711 -6.28906,0 -9.98047,-2.73438 -3.66406,-2.76172 -4.29297,-7.95703 l 7.82031,-0.68359 q 0.6836,5.14062 6.42579,5.14062 2.87109,0 4.48437,-1.36719 1.61328,-1.39453 1.61328,-3.77343 0,-2.37891 -1.99609,-3.63672 -1.96875,-1.25782 -5.66016,-1.25782 h -2.67969 v -6.20703 H 524.25 q 3.33594,0 5.11328,-1.25781 1.80469,-1.28516 1.80469,-3.55469 0,-2.05078 -1.50391,-3.36328 -1.47656,-1.3125 -3.96484,-1.3125 -2.35156,0 -3.88281,1.1211 -1.53125,1.09375 -1.75,3.5 l -7.6836,-0.54688 q 0.60156,-4.89453 4.12891,-7.54687 3.55469,-2.65235 9.32422,-2.65235 4.04687,0 7,1.23047 2.98047,1.23047 4.53906,3.47266 1.58594,2.21484 1.58594,5.14062 0,3.36328 -2.13282,5.60547 -2.13281,2.24219 -6.09765,3.00781 v 0.10938 q 4.29297,0.49219 6.7539,2.8164 2.46094,2.29688 2.46094,5.79688 z M 559.64062,352 v -8.33984 h 7.90235 V 352 Z m 0,-21.32813 v -8.33984 h 7.90235 v 8.33984 z m 55.46094,8.91407 q 0,3.82812 -1.72265,6.78125 -1.69532,2.92578 -4.94922,4.5664 -3.22657,1.61328 -7.60157,1.61328 -5.79687,0 -9.29687,-2.59765 -3.47266,-2.625 -4.29297,-7.57422 l 7.68359,-0.62891 q 0.60157,2.46094 2.13282,3.58203 1.53125,1.1211 3.85547,1.1211 2.95312,0 4.62109,-1.75 1.66797,-1.75 1.66797,-4.94922 0,-2.84375 -1.61328,-4.53906 -1.61328,-1.72266 -4.51172,-1.72266 -3.19922,0 -5.22266,2.48828 h -7.49219 l 1.33985,-20.86328 h 23.16015 v 5.71484 h -16.1875 l -0.6289,8.91407 q 2.78906,-2.46094 6.97265,-2.46094 5.4961,0 8.77735,3.39062 3.30859,3.36329 3.30859,8.91407 z m 37.14063,-6.64453 q 0,9.48828 -3.71875,14.54687 -3.69141,5.05859 -10.66407,5.05859 -5.08593,0 -7.98437,-2.16015 -2.87109,-2.1875 -4.07422,-6.89063 l 7.21875,-1.01172 q 1.06641,4.01954 4.92188,4.01954 3.11718,0 4.89453,-2.84375 1.80468,-2.8711 1.85937,-8.58594 -1.03906,2.05078 -3.41797,3.22656 -2.35156,1.14844 -5.08593,1.14844 -5.00391,0 -8.03907,-3.36328 -3.03515,-3.36328 -3.03515,-9.05078 0,-5.82422 3.55468,-9.16016 3.55469,-3.33594 9.89844,-3.33594 6.67188,0 10.17188,4.53906 3.5,4.53907 3.5,13.86329 z m -8.1211,-4.97657 q 0,-3.33593 -1.61328,-5.35937 -1.61328,-2.05078 -4.1289,-2.05078 -2.48829,0 -3.99219,1.77734 -1.47656,1.75 -1.47656,4.75781 0,2.95313 1.47656,4.8125 1.5039,1.83203 4.01953,1.83203 2.48828,0 4.10156,-1.58593 1.61328,-1.61328 1.61328,-4.1836 z M 672.45703,352 v -8.33984 h 7.90234 V 352 Z m 0,-21.32813 v -8.33984 h 7.90234 v 8.33984 z m 55.46094,8.91407 q 0,3.82812 -1.72266,6.78125 -1.69531,2.92578 -4.94922,4.5664 -3.22656,1.61328 -7.60156,1.61328 -5.79687,0 -9.29687,-2.59765 -3.47266,-2.625 -4.29297,-7.57422 l 7.68359,-0.62891 q 0.60156,2.46094 2.13281,3.58203 1.53125,1.1211 3.85547,1.1211 2.95313,0 4.6211,-1.75 1.66796,-1.75 1.66796,-4.94922 0,-2.84375 -1.61328,-4.53906 -1.61328,-1.72266 -4.51172,-1.72266 -3.19921,0 -5.22265,2.48828 h -7.49219 l 1.33984,-20.86328 h 23.16016 v 5.71484 h -16.1875 l -0.62891,8.91407 q 2.78907,-2.46094 6.97266,-2.46094 5.49609,0 8.77734,3.39062 3.3086,3.36329 3.3086,8.91407 z m 37.14062,-6.64453 q 0,9.48828 -3.71875,14.54687 -3.6914,5.05859 -10.66406,5.05859 -5.08594,0 -7.98437,-2.16015 -2.8711,-2.1875 -4.07422,-6.89063 l 7.21875,-1.01172 q 1.0664,4.01954 4.92187,4.01954 3.11719,0 4.89453,-2.84375 1.80469,-2.8711 1.85938,-8.58594 -1.03906,2.05078 -3.41797,3.22656 -2.35156,1.14844 -5.08594,1.14844 -5.0039,0 -8.03906,-3.36328 -3.03516,-3.36328 -3.03516,-9.05078 0,-5.82422 3.55469,-9.16016 3.55469,-3.33594 9.89844,-3.33594 6.67187,0 10.17187,4.53906 3.5,4.53907 3.5,13.86329 z m -8.12109,-4.97657 q 0,-3.33593 -1.61328,-5.35937 -1.61328,-2.05078 -4.12891,-2.05078 -2.48828,0 -3.99219,1.77734 -1.47656,1.75 -1.47656,4.75781 0,2.95313 1.47656,4.8125 1.50391,1.83203 4.01954,1.83203 2.48828,0 4.10156,-1.58593 1.61328,-1.61328 1.61328,-4.1836 z"
     id="text4"
     style="font-weight:bold;font-size:56px;font-family:'Liberation Mono', Menlo, Consolas, monospace;letter-spacing:4;text-anchor:middle;fill:#f5efdf"
     aria-label="23:59:59" />
</svg>
